<svg version="1.1" xmlns="http://www.w3.org/2000/svg" viewBox="0 0 1588.517700042573 988.378548528935" width="3177.035400085146" height="1976.75709705787">
  <!-- svg-source:excalidraw -->
  
  <defs>
    <style class="style-fonts">
      @font-face {
        font-family: "Virgil";
        src: url("https://excalidraw.com/Virgil.woff2");
      }
      @font-face {
        font-family: "Cascadia";
        src: url("https://excalidraw.com/Cascadia.woff2");
      }
      @font-face {
        font-family: "Assistant";
        src: url("https://excalidraw.com/Assistant-Regular.woff2");
      }
    </style>
    
  </defs>
  <rect x="0" y="0" width="1588.517700042573" height="988.378548528935" fill="#ffffff"></rect><g stroke-linecap="round" transform="translate(1022.8692625425731 141.29804846097892) rotate(0 60.123046875 161.630859375)"><path d="M30.06 0 C47.06 0.21, 61.39 -0.08, 90.18 0 M30.06 0 C52.84 0.65, 74.62 -0.17, 90.18 0 M90.18 0 C109.39 0.93, 121.42 11.14, 120.25 30.06 M90.18 0 C112.4 0.8, 118.07 9.11, 120.25 30.06 M120.25 30.06 C123.24 86.97, 120.51 142.67, 120.25 293.2 M120.25 30.06 C119.03 111.44, 118.6 192.38, 120.25 293.2 M120.25 293.2 C119.94 313.17, 111.22 323.9, 90.18 323.26 M120.25 293.2 C121.24 314.76, 109.47 323.3, 90.18 323.26 M90.18 323.26 C69.71 321.55, 49.86 321.24, 30.06 323.26 M90.18 323.26 C67.99 324.3, 45.11 323.08, 30.06 323.26 M30.06 323.26 C9.83 321.8, -0.66 315.23, 0 293.2 M30.06 323.26 C10.46 321.14, -0.33 311.08, 0 293.2 M0 293.2 C-2.39 229.13, -2.57 166.72, 0 30.06 M0 293.2 C1.59 200.78, 1.84 106.71, 0 30.06 M0 30.06 C0.6 9.08, 11.66 -1.15, 30.06 0 M0 30.06 C-1.46 9.77, 8.71 0.51, 30.06 0" stroke="#1e1e1e" stroke-width="1" fill="none"></path></g><g transform="translate(1034.0243376158153 272.9289078359789) rotate(0 48.96797180175781 30)"><text x="48.96797180175781" y="14.016" font-family="Virgil, Segoe UI Emoji" font-size="16px" fill="#1e1e1e" text-anchor="middle" style="white-space: pre;" direction="ltr" dominant-baseline="alphabetic">worker</text><text x="48.96797180175781" y="34.016" font-family="Virgil, Segoe UI Emoji" font-size="16px" fill="#1e1e1e" text-anchor="middle" style="white-space: pre;" direction="ltr" dominant-baseline="alphabetic">&amp;</text><text x="48.96797180175781" y="54.016" font-family="Virgil, Segoe UI Emoji" font-size="16px" fill="#1e1e1e" text-anchor="middle" style="white-space: pre;" direction="ltr" dominant-baseline="alphabetic">localStorage</text></g><g stroke-linecap="round"><g transform="translate(909.7012937925731 152.23554846097892) rotate(0 -2.462890625 240.998046875)"><path d="M-1.06 -0.31 C-1.8 79.78, -4.29 400.61, -5.09 480.83" stroke="#1e1e1e" stroke-width="1.5" fill="none" stroke-dasharray="8 9"></path></g></g><mask></mask><g stroke-linecap="round"><g transform="translate(1364.681762542573 61.39961096097892) rotate(0 -1.798828125 255.931640625)"><path d="M0.33 -0.89 C-0.28 84.46, -2.89 427.45, -3.62 513.05" stroke="#1e1e1e" stroke-width="1.5" fill="none" stroke-dasharray="8 9"></path></g></g><mask></mask><g stroke-linecap="round" transform="translate(1464.759887542573 139.74726721097892) rotate(0 56.87890625 167.662109375)"><path d="M28.44 0 C43 0.71, 55.63 -0.52, 85.32 0 M85.32 0 C103.58 1.62, 115.6 8.56, 113.76 28.44 M113.76 28.44 C110.73 103.14, 112.72 174.64, 113.76 306.88 M113.76 306.88 C115.34 325.94, 104.12 335, 85.32 335.32 M85.32 335.32 C61.69 335.38, 41.86 335.58, 28.44 335.32 M28.44 335.32 C8.39 335.61, 1.36 325.36, 0 306.88 M0 306.88 C0.03 226.37, 0 146.98, 0 28.44 M0 28.44 C1.62 9.96, 10.72 1.04, 28.44 0" stroke="#1e1e1e" stroke-width="1.5" fill="none" stroke-dasharray="8 9"></path></g><g transform="translate(1514.1828001402293 297.4093765859789) rotate(0 7.45599365234375 10)"><text x="7.45599365234375" y="14.016" font-family="Virgil, Segoe UI Emoji" font-size="16px" fill="#1e1e1e" text-anchor="middle" style="white-space: pre;" direction="ltr" dominant-baseline="alphabetic">??</text></g><g stroke-linecap="round" transform="translate(764.6427000425731 232.05586096097892) rotate(0 50.1484375 75.232421875)"><path d="M25.07 0 C41.33 1.74, 56.17 -1.2, 75.22 0 M25.07 0 C37.63 -0.59, 50.63 1.16, 75.22 0 M75.22 0 C92.3 1.47, 98.76 8.78, 100.3 25.07 M75.22 0 C93.66 0.94, 98.78 6.31, 100.3 25.07 M100.3 25.07 C101.09 50.56, 101.47 77.43, 100.3 125.39 M100.3 25.07 C99.65 52.96, 100.27 80.43, 100.3 125.39 M100.3 125.39 C98.35 141.39, 90.03 149.95, 75.22 150.46 M100.3 125.39 C99.75 142.77, 93.78 148.6, 75.22 150.46 M75.22 150.46 C63.3 150.8, 48.84 152.17, 25.07 150.46 M75.22 150.46 C58.51 151.11, 43.65 150.79, 25.07 150.46 M25.07 150.46 C6.71 151.26, 1.83 141.81, 0 125.39 M25.07 150.46 C10.49 151.66, -2.12 140.22, 0 125.39 M0 125.39 C-1.35 86.51, -2.33 50.01, 0 25.07 M0 125.39 C-0.81 98.57, 0.3 72.12, 0 25.07 M0 25.07 C1.31 8.28, 9 0.36, 25.07 0 M0 25.07 C2.09 7.62, 7.91 1.93, 25.07 0" stroke="#1e1e1e" stroke-width="1" fill="none"></path></g><g transform="translate(784.6951521299754 297.2882828359789) rotate(0 30.095985412597656 10)"><text x="30.095985412597656" y="14.016" font-family="Virgil, Segoe UI Emoji" font-size="16px" fill="#1e1e1e" text-anchor="middle" style="white-space: pre;" direction="ltr" dominant-baseline="alphabetic">context</text></g><g stroke-linecap="round" transform="translate(584.7872312925731 236.73945471097892) rotate(0 37.29628189016819 86.12436989120977)"><path d="M18.65 0 C29.68 -1.19, 37.34 0.94, 55.94 0 M18.65 0 C27.05 0.85, 33.21 -0.76, 55.94 0 M55.94 0 C66.5 -0.61, 74.8 5.32, 74.59 18.65 M55.94 0 C67.97 2.21, 76.19 5.64, 74.59 18.65 M74.59 18.65 C73.91 68.28, 74.67 121.99, 74.59 153.6 M74.59 18.65 C75.77 50.21, 74.73 80.6, 74.59 153.6 M74.59 153.6 C74.14 166.55, 67.7 170.39, 55.94 172.25 M74.59 153.6 C72.73 166.2, 67.66 170.19, 55.94 172.25 M55.94 172.25 C42.91 173.8, 30.68 173.78, 18.65 172.25 M55.94 172.25 C45.97 171.5, 37.16 172.59, 18.65 172.25 M18.65 172.25 C6.31 170.91, 0.51 164.67, 0 153.6 M18.65 172.25 C7.03 173.34, -1.65 165.79, 0 153.6 M0 153.6 C0.61 112.98, 1.11 69.25, 0 18.65 M0 153.6 C-0.21 105.26, -1.81 55.67, 0 18.65 M0 18.65 C1.5 6.4, 6.6 -0.15, 18.65 0 M0 18.65 C-1.61 6.2, 4.83 -0.25, 18.65 0" stroke="#1e1e1e" stroke-width="1" fill="none"></path></g><g transform="translate(590.9206484976827 314.0770245495226) rotate(0 31.162864685058594 8.78680005266608)"><text x="31.162864685058594" y="12.315578953816765" font-family="Virgil, Segoe UI Emoji" font-size="14.058880084265711px" fill="#1e1e1e" text-anchor="middle" style="white-space: pre;" direction="ltr" dominant-baseline="alphabetic">collection</text></g><g stroke-linecap="round"><g transform="translate(401.4786375425731 79.64961096097892) rotate(0 -3.017578125 275.62109375)"><path d="M0.29 0.21 C-1.02 91.92, -5.87 458.55, -7.08 550.34" stroke="#1e1e1e" stroke-width="1.5" fill="none" stroke-dasharray="8 9"></path></g></g><mask></mask><g transform="translate(10 14.287051115752604) rotate(0 143.91995239257812 17.5)"><text x="0" y="24.528" font-family="Virgil, Segoe UI Emoji" font-size="28px" fill="#1e1e1e" text-anchor="start" style="white-space: pre;" direction="ltr" dominant-baseline="alphabetic">UI (react &amp; leaflet)</text></g><g transform="translate(632.3230165594591 17.89222018042159) rotate(0 46.47998046875 17.5)"><text x="0" y="24.528" font-family="Virgil, Segoe UI Emoji" font-size="28px" fill="#1e1e1e" text-anchor="start" style="white-space: pre;" direction="ltr" dominant-baseline="alphabetic">Domain</text></g><g transform="translate(1017.8297335076566 10.43514710322495) rotate(0 64.28797912597656 34.99999999999997)"><text x="0" y="24.528" font-family="Virgil, Segoe UI Emoji" font-size="28px" fill="#1e1e1e" text-anchor="start" style="white-space: pre;" direction="ltr" dominant-baseline="alphabetic">Message</text><text x="0" y="59.528" font-family="Virgil, Segoe UI Emoji" font-size="28px" fill="#1e1e1e" text-anchor="start" style="white-space: pre;" direction="ltr" dominant-baseline="alphabetic">Local DB</text></g><g transform="translate(1457.8502540177292 10) rotate(0 55.52397155761719 17.50000000000003)"><text x="0" y="24.528" font-family="Virgil, Segoe UI Emoji" font-size="28px" fill="#1e1e1e" text-anchor="start" style="white-space: pre;" direction="ltr" dominant-baseline="alphabetic">Backend</text></g><g stroke-linecap="round" transform="translate(328.8848875425731 131.83320471097892) rotate(0 74.619140625 37.30859375)"><path d="M2.48 7.45 C2.48 7.45, 2.48 7.45, 2.48 7.45 M2.48 7.45 C2.48 7.45, 2.48 7.45, 2.48 7.45 M0.9 15.36 C2.67 12.46, 6.08 10.06, 10.09 4.8 M0.9 15.36 C4.09 10.77, 7.83 8.18, 10.09 4.8 M1.3 21 C6.22 17.89, 11.16 12.73, 19.01 0.63 M1.3 21 C4.77 16.37, 7.66 13.41, 19.01 0.63 M1.04 27.4 C5.79 18.66, 12.7 10.06, 24.66 0.23 M1.04 27.4 C7.1 21.42, 12.9 14.85, 24.66 0.23 M1.43 33.05 C8.66 25.21, 15.27 19.5, 29.64 0.59 M1.43 33.05 C11.77 20.9, 23.52 7, 29.64 0.59 M1.17 39.44 C9.48 28.46, 22.96 16.76, 35.29 0.2 M1.17 39.44 C8.73 29.99, 18.1 20.52, 35.29 0.2 M0.91 45.84 C10.24 35.2, 22.21 24.72, 40.27 0.56 M0.91 45.84 C14.55 30.7, 26.58 16.23, 40.27 0.56 M1.3 51.48 C12.11 38.6, 23.68 25.45, 45.92 0.16 M1.3 51.48 C16.43 36.07, 30.39 18.71, 45.92 0.16 M1.04 57.88 C12.06 47.32, 23.93 35.62, 50.9 0.52 M1.04 57.88 C11.77 44.4, 23.42 32.46, 50.9 0.52 M2.75 62.02 C23.67 37.21, 44.47 12.71, 56.55 0.13 M2.75 62.02 C22.19 38.38, 41.18 16.1, 56.55 0.13 M3.14 67.66 C26.73 40.76, 45.8 14.49, 61.53 0.49 M3.14 67.66 C22.8 44.67, 41.18 23.52, 61.53 0.49 M6.16 70.28 C29.11 42.03, 52.62 14.35, 67.18 0.09 M6.16 70.28 C30.08 44.67, 54.01 16.3, 67.18 0.09 M8.53 73.66 C24.3 57.55, 36.2 39.86, 72.16 0.45 M8.53 73.66 C31.74 48.02, 56.37 20.75, 72.16 0.45 M13.51 74.02 C29.75 52.77, 49.7 32.21, 77.15 0.81 M13.51 74.02 C36.53 46.56, 62.13 19.21, 77.15 0.81 M17.84 75.14 C38.67 53.63, 59.12 30.27, 82.79 0.42 M17.84 75.14 C34.3 56.16, 50.25 38.27, 82.79 0.42 M21.52 77.01 C36.02 61.03, 53.68 42.42, 87.78 0.78 M21.52 77.01 C34.62 61.78, 48.02 45.42, 87.78 0.78 M26.51 77.37 C41.19 63.12, 54.27 45.43, 93.42 0.39 M26.51 77.37 C50.6 51.3, 74.17 22.23, 93.42 0.39 M32.15 76.97 C45.92 61.82, 57.36 47.74, 98.41 0.75 M32.15 76.97 C55.6 49.93, 78.12 23.63, 98.41 0.75 M37.14 77.33 C53.1 58.37, 70.27 41.18, 104.05 0.35 M37.14 77.33 C56.49 55.36, 75.16 32.31, 104.05 0.35 M42.78 76.94 C60.92 53.54, 80.68 32.93, 109.04 0.71 M42.78 76.94 C66.15 51.1, 88.43 24.14, 109.04 0.71 M47.77 77.3 C71.3 52.36, 91.77 25.79, 114.68 0.32 M47.77 77.3 C68.55 55.01, 88.46 31.01, 114.68 0.32 M53.41 76.9 C76.18 48.66, 100.78 23.76, 119.67 0.68 M53.41 76.9 C77.21 49.05, 100.5 21.47, 119.67 0.68 M58.4 77.26 C77.56 54.88, 97.18 31.9, 125.31 0.28 M58.4 77.26 C76.49 55.91, 95.65 36.28, 125.31 0.28 M64.04 76.87 C79.48 56.5, 97.12 37.55, 130.96 -0.11 M64.04 76.87 C90.64 46.42, 116.28 17.12, 130.96 -0.11 M69.03 77.23 C93.18 51.56, 116.5 24.34, 135.29 1 M69.03 77.23 C92.08 51.83, 112.06 28.13, 135.29 1 M74.67 76.83 C97.66 48.31, 120.37 23.92, 139.62 2.12 M74.67 76.83 C92.56 55.92, 109.82 36.61, 139.62 2.12 M79.66 77.19 C98.08 57.23, 117.05 34.83, 143.29 3.99 M79.66 77.19 C93.39 61.08, 107.23 44.87, 143.29 3.99 M85.3 76.8 C100.74 58.19, 114.47 41.35, 146.31 6.61 M85.3 76.8 C102.91 57.39, 119.48 37.58, 146.31 6.61 M90.29 77.16 C103.47 60.28, 118.22 48.12, 149.33 9.24 M90.29 77.16 C111.85 52.91, 131.54 29.98, 149.33 9.24 M95.93 76.76 C108.22 65.21, 118.31 52.41, 149.73 14.88 M95.93 76.76 C113.82 55.31, 132.27 35.62, 149.73 14.88 M100.92 77.12 C114.14 62.75, 127.83 44.59, 149.46 21.28 M100.92 77.12 C118.21 59.38, 132.91 39.04, 149.46 21.28 M106.56 76.73 C121.52 60.95, 137.79 41.93, 149.86 26.92 M106.56 76.73 C123.97 56.4, 140.9 36.99, 149.86 26.92 M111.55 77.09 C122.34 61.75, 133.64 48.87, 149.6 33.32 M111.55 77.09 C121.59 65.64, 132.28 53.17, 149.6 33.32 M117.19 76.7 C126.6 65.1, 137.16 51.76, 149.99 38.96 M117.19 76.7 C125.26 67.38, 133.02 58.55, 149.99 38.96 M122.18 77.06 C131.84 66.12, 139.53 55.51, 149.73 45.36 M122.18 77.06 C129.19 69.36, 135.42 61.72, 149.73 45.36 M127.16 77.42 C132.28 69.29, 142.38 60.79, 150.13 51 M127.16 77.42 C133.56 69.8, 140.56 60.31, 150.13 51 M132.81 77.02 C138.01 71.23, 147.48 63.25, 150.52 56.64 M132.81 77.02 C135.98 72.6, 140.74 68.65, 150.52 56.64 M142.39 72.1 C144.41 69.59, 146.26 68.01, 148.29 65.31 M142.39 72.1 C144.11 70.26, 145.61 68.74, 148.29 65.31" stroke="#b2f2bb" stroke-width="0.5" fill="none"></path><path d="M18.65 0 C62.24 -1.65, 105.87 0.45, 130.58 0 M18.65 0 C43.02 0.94, 68.9 0.92, 130.58 0 M130.58 0 C144.02 0.85, 150.89 7.27, 149.24 18.65 M130.58 0 C143.69 0.17, 148.15 6.67, 149.24 18.65 M149.24 18.65 C149.26 33, 148.16 43.51, 149.24 55.96 M149.24 18.65 C148.48 31.88, 148.26 44.08, 149.24 55.96 M149.24 55.96 C150.57 69.41, 144.79 73.16, 130.58 74.62 M149.24 55.96 C148.04 66.86, 142.66 75.03, 130.58 74.62 M130.58 74.62 C94.23 74.99, 55.35 76.11, 18.65 74.62 M130.58 74.62 C100.29 75.16, 71.68 73.72, 18.65 74.62 M18.65 74.62 C7.12 75.82, 1.3 68.01, 0 55.96 M18.65 74.62 C4.04 74.47, -2.17 67.51, 0 55.96 M0 55.96 C-0.31 41.2, -0.68 28.12, 0 18.65 M0 55.96 C-0.06 47.66, 0.78 41.02, 0 18.65 M0 18.65 C-1.33 6.94, 7.81 1.41, 18.65 0 M0 18.65 C1.45 5.41, 5.04 -0.73, 18.65 0" stroke="#1e1e1e" stroke-width="1" fill="none"></path></g><g transform="translate(371.76805099472153 159.14179846097892) rotate(0 31.735977172851562 10)"><text x="31.735977172851562" y="14.016" font-family="Virgil, Segoe UI Emoji" font-size="16px" fill="#1e1e1e" text-anchor="middle" style="white-space: pre;" direction="ltr" dominant-baseline="alphabetic">renderer</text></g><g mask="url(#mask-FfCL6DjlVILQVFWrPepCK)" stroke-linecap="round"><g transform="translate(576.6075437925731 267.04686391210447) rotate(0 -64.19058074195277 -27.581438975562776)"><path d="M-0.56 0.68 C-15.05 -1.93, -64.94 -5.49, -86.31 -14.96 C-107.67 -24.43, -121.78 -49.53, -128.75 -56.16 M1.34 -0.01 C-12.81 -2.56, -62.12 -4.71, -83.96 -13.93 C-105.81 -23.16, -122.41 -48.78, -129.71 -55.36" stroke="#1e1e1e" stroke-width="1" fill="none"></path></g><g transform="translate(576.6075437925731 267.04686391210447) rotate(0 -64.19058074195277 -27.581438975562776)"><path d="M-107.72 -43.48 C-114.37 -48.92, -124.86 -52.54, -129.71 -55.36 M-107.72 -43.48 C-112.31 -45.53, -117.41 -48.85, -129.71 -55.36" stroke="#1e1e1e" stroke-width="1" fill="none"></path></g><g transform="translate(576.6075437925731 267.04686391210447) rotate(0 -64.19058074195277 -27.581438975562776)"><path d="M-120.5 -32.12 C-122.74 -41.49, -128.74 -49.1, -129.71 -55.36 M-120.5 -32.12 C-122.34 -36.69, -124.66 -42.48, -129.71 -55.36" stroke="#1e1e1e" stroke-width="1" fill="none"></path></g></g><mask id="mask-FfCL6DjlVILQVFWrPepCK"><rect x="0" y="0" fill="#fff" width="804.9887052764786" height="422.20974186323"></rect><rect x="461.03800186142075" y="243.06757971097898" fill="#000" width="59.93595886230469" height="20" opacity="1"></rect></mask><g transform="translate(461.03800186142075 243.06757971097886) rotate(0 51.38460781884032 -3.7578807095387106)"><text x="29.967979431152344" y="14.016" font-family="Virgil, Segoe UI Emoji" font-size="16px" fill="#1e1e1e" text-anchor="middle" style="white-space: pre;" direction="ltr" dominant-baseline="alphabetic">request</text></g><g stroke-linecap="round" transform="translate(25.666137542573097 206.45820471097892) rotate(0 71.3359375 79.50390625)"><path d="M32 0 C54.2 1.72, 74.02 0.27, 110.67 0 M32 0 C49.69 -0.16, 68.34 0.66, 110.67 0 M110.67 0 C130.75 1.93, 141.17 12.45, 142.67 32 M110.67 0 C131.66 -0.45, 141.08 12.08, 142.67 32 M142.67 32 C142.17 59.7, 144.98 86.03, 142.67 127.01 M142.67 32 C141.21 54.73, 141.56 78.97, 142.67 127.01 M142.67 127.01 C143.51 148.6, 132.11 158.2, 110.67 159.01 M142.67 127.01 C140.97 146.15, 133.24 158.77, 110.67 159.01 M110.67 159.01 C81.34 158.17, 52.9 159.97, 32 159.01 M110.67 159.01 C92.62 158.36, 73.69 159.06, 32 159.01 M32 159.01 C11.7 159.96, 1.36 146.65, 0 127.01 M32 159.01 C8.48 160.51, -1.72 148.68, 0 127.01 M0 127.01 C-2.44 104.36, -0.47 78.62, 0 32 M0 127.01 C-0.56 92.18, -1.12 60.02, 0 32 M0 32 C0.61 10.02, 12.07 0.38, 32 0 M0 32 C-0.05 10.54, 9.81 -2.01, 32 0" stroke="#1e1e1e" stroke-width="1" fill="none"></path></g><g transform="translate(70.2980955503856 275.9621109609789) rotate(0 26.7039794921875 10)"><text x="26.7039794921875" y="14.016" font-family="Virgil, Segoe UI Emoji" font-size="16px" fill="#1e1e1e" text-anchor="middle" style="white-space: pre;" direction="ltr" dominant-baseline="alphabetic">leaflet</text></g><g stroke-linecap="round" transform="translate(20.341918792573097 388.9074234609789) rotate(0 71.3359375 79.50390625)"><path d="M32 0 C50.99 0.66, 68.67 -0.56, 110.67 0 M32 0 C61.13 1.07, 91.7 0.89, 110.67 0 M110.67 0 C131.69 -1.91, 143.96 9.74, 142.67 32 M110.67 0 C132.13 1.42, 141.43 12.21, 142.67 32 M142.67 32 C143.9 56.06, 144.05 78.82, 142.67 127.01 M142.67 32 C141.77 58.31, 142.31 82.89, 142.67 127.01 M142.67 127.01 C142.95 149.91, 132.63 157.65, 110.67 159.01 M142.67 127.01 C144.05 148.45, 130 158.35, 110.67 159.01 M110.67 159.01 C93.22 159.76, 77.55 160.01, 32 159.01 M110.67 159.01 C79.43 158.9, 48.09 158.32, 32 159.01 M32 159.01 C11.09 159.02, 1.22 147.56, 0 127.01 M32 159.01 C8.81 160.83, 0.25 147, 0 127.01 M0 127.01 C0.53 94.73, 0.45 63.49, 0 32 M0 127.01 C-1.14 93.31, -1.3 59.15, 0 32 M0 32 C-0.4 10.86, 11.58 1.45, 32 0 M0 32 C-0.67 11.47, 12.89 1.64, 32 0" stroke="#1e1e1e" stroke-width="1" fill="none"></path></g><g transform="translate(69.9898680113231 458.4113297109789) rotate(0 21.68798828125 10)"><text x="21.68798828125" y="14.016" font-family="Virgil, Segoe UI Emoji" font-size="16px" fill="#1e1e1e" text-anchor="middle" style="white-space: pre;" direction="ltr" dominant-baseline="alphabetic">react</text></g><g mask="url(#mask-K7mVV-gjbGm75EsPiBL3t)" stroke-linecap="round"><g transform="translate(329.3848875425731 498.4643825944418) rotate(0 -79.7421875 2.23538644121561)"><path d="M-1.1 -0.22 C-27.9 0.53, -133.69 3.03, -159.94 3.9 M0.53 -1.39 C-26.55 -0.42, -134.56 4.41, -161.12 5.13" stroke="#1e1e1e" stroke-width="1" fill="none"></path></g><g transform="translate(329.3848875425731 498.4643825944418) rotate(0 -79.7421875 2.23538644121561)"><path d="M-137.96 -4.28 C-147.08 -1.71, -156.36 4.14, -161.12 5.13 M-137.96 -4.28 C-146.78 -1.56, -154.26 2.14, -161.12 5.13" stroke="#1e1e1e" stroke-width="1" fill="none"></path></g><g transform="translate(329.3848875425731 498.4643825944418) rotate(0 -79.7421875 2.23538644121561)"><path d="M-137.33 12.8 C-146.59 8.95, -156.11 8.39, -161.12 5.13 M-137.33 12.8 C-146.23 9.65, -153.94 7.47, -161.12 5.13" stroke="#1e1e1e" stroke-width="1" fill="none"></path></g></g><mask id="mask-K7mVV-gjbGm75EsPiBL3t"><rect x="0" y="0" fill="#fff" width="588.8692625425731" height="602.935155476873"></rect><rect x="214.17071517929185" y="490.6997690356575" fill="#000" width="70.9439697265625" height="20" opacity="1"></rect></mask><g transform="translate(214.17071517929185 490.6997690356575) rotate(0 34.918249869802935 9.638129809787472)"><text x="35.47198486328125" y="14.016" font-family="Virgil, Segoe UI Emoji" font-size="16px" fill="#1e1e1e" text-anchor="middle" style="white-space: pre;" direction="ltr" dominant-baseline="alphabetic">useEvent</text></g><g stroke-linecap="round" transform="translate(341.0450437925731 457.2394547109789) rotate(0 51.6171875 42.8984375)"><path d="M3.24 8.12 C3.24 8.12, 3.24 8.12, 3.24 8.12 M3.24 8.12 C3.24 8.12, 3.24 8.12, 3.24 8.12 M1.01 16.78 C4.3 14.65, 8.33 9.77, 13.48 2.44 M1.01 16.78 C5.09 11.53, 9.95 6.11, 13.48 2.44 M0.75 23.18 C4.19 16.58, 12.5 9.73, 20.43 0.54 M0.75 23.18 C5.87 16.39, 11.64 12.19, 20.43 0.54 M1.15 28.82 C8.96 21.23, 14.05 11.01, 26.08 0.14 M1.15 28.82 C10.48 18.16, 17.99 7.71, 26.08 0.14 M0.88 35.22 C7.84 25.05, 16.21 16.92, 31.06 0.5 M0.88 35.22 C7.86 27.53, 14.53 19.7, 31.06 0.5 M0.62 41.62 C16.36 25.21, 26.18 8.56, 36.71 0.11 M0.62 41.62 C13.93 26.25, 27.94 10.65, 36.71 0.11 M1.02 47.26 C11.56 35.03, 18.68 24.72, 41.69 0.47 M1.02 47.26 C13.47 31.24, 27.05 17.42, 41.69 0.47 M0.76 53.66 C19.11 33.51, 36.81 12.4, 46.68 0.83 M0.76 53.66 C17.88 34.51, 32.99 16.3, 46.68 0.83 M1.15 59.3 C16.12 42.43, 29.9 29.58, 52.32 0.43 M1.15 59.3 C12.81 46.35, 25.1 31.13, 52.32 0.43 M0.89 65.7 C15.59 47.35, 30.83 32, 57.31 0.79 M0.89 65.7 C21.78 42.53, 41.63 17.66, 57.31 0.79 M1.28 71.34 C12.76 57.16, 25.12 40.46, 62.95 0.4 M1.28 71.34 C15.77 54.13, 30.26 37.82, 62.95 0.4 M2.99 75.48 C14.86 58.54, 27.76 45.65, 67.94 0.76 M2.99 75.48 C18.5 56.71, 35.55 38.85, 67.94 0.76 M4.7 79.61 C28.27 51.72, 51.69 24.77, 73.58 0.36 M4.7 79.61 C28.54 51.62, 50.95 24.89, 73.58 0.36 M7.72 82.23 C33.59 47.95, 64.32 17.63, 78.57 0.72 M7.72 82.23 C21.38 64.64, 35.07 49.75, 78.57 0.72 M12.05 83.35 C28.56 64.75, 43.73 47.58, 84.21 0.33 M12.05 83.35 C35.74 55.33, 58.21 27.66, 84.21 0.33 M15.72 85.22 C34.83 60.78, 57.08 35.35, 88.54 1.44 M15.72 85.22 C44.6 52.47, 72.94 18.96, 88.54 1.44 M20.71 85.58 C50.53 53.43, 77.26 23.01, 92.22 3.31 M20.71 85.58 C45.3 56.26, 70.67 28.02, 92.22 3.31 M25.7 85.94 C55 55.6, 83.97 20.7, 96.55 4.43 M25.7 85.94 C50.16 56.74, 75.97 28.35, 96.55 4.43 M31.34 85.54 C48.36 64.45, 67.96 44.52, 99.57 7.05 M31.34 85.54 C51.33 61.93, 73.65 38.19, 99.57 7.05 M36.33 85.9 C53.15 68.57, 66.27 50.63, 101.28 11.19 M36.33 85.9 C60.39 58.99, 82.49 31.41, 101.28 11.19 M41.97 85.51 C62.19 63.88, 78.49 40.97, 102.98 15.32 M41.97 85.51 C58.06 65.4, 73.67 47.2, 102.98 15.32 M46.96 85.87 C67.46 64.08, 88.11 39.77, 104.03 20.21 M46.96 85.87 C63.32 67.71, 79.13 50.29, 104.03 20.21 M52.6 85.47 C73.16 63.8, 92.2 37.65, 103.77 26.61 M52.6 85.47 C67.06 70.33, 79.89 53.77, 103.77 26.61 M57.59 85.83 C75.5 64.34, 95.38 44.05, 103.51 33 M57.59 85.83 C71.29 69.17, 84.1 54.55, 103.51 33 M62.57 86.19 C72.11 73.81, 83.25 64.62, 103.9 38.65 M62.57 86.19 C74.66 72.16, 87.4 57.68, 103.9 38.65 M68.22 85.8 C79.58 73.14, 91.64 55.16, 103.64 45.05 M68.22 85.8 C75.52 76.69, 83.57 69.08, 103.64 45.05 M73.2 86.16 C83.54 71.89, 95.61 58.75, 103.38 51.44 M73.2 86.16 C83.43 74.37, 93.31 63.27, 103.38 51.44 M78.85 85.77 C87.55 77.77, 95.8 66.77, 103.78 57.09 M78.85 85.77 C87.88 76.04, 96.4 65.91, 103.78 57.09 M83.83 86.13 C90.27 77.8, 93.99 75.2, 103.52 63.48 M83.83 86.13 C89.67 80.98, 94.53 75.07, 103.52 63.48 M90.13 84.98 C94.1 82.85, 95.95 76.38, 103.25 69.88 M90.13 84.98 C93.5 82.2, 96.26 78.7, 103.25 69.88" stroke="#b2f2bb" stroke-width="0.5" fill="none"></path><path d="M21.45 0 C46.29 1.24, 69.82 -1.94, 81.79 0 M21.45 0 C46.25 0.4, 69.52 1.23, 81.79 0 M81.79 0 C98.08 -1.26, 104.94 5.92, 103.23 21.45 M81.79 0 C97.02 1.51, 102.92 6.95, 103.23 21.45 M103.23 21.45 C103.11 31.88, 104.21 46.2, 103.23 64.35 M103.23 21.45 C103.6 30.32, 103.74 39.4, 103.23 64.35 M103.23 64.35 C101.93 79.17, 96.13 85.12, 81.79 85.8 M103.23 64.35 C102.33 77.72, 94.71 87.05, 81.79 85.8 M81.79 85.8 C69.38 87.53, 54.15 85.58, 21.45 85.8 M81.79 85.8 C68.51 84.36, 53.96 85.43, 21.45 85.8 M21.45 85.8 C6.29 85.76, 1.92 79.06, 0 64.35 M21.45 85.8 C8.29 85.38, -1.5 79.37, 0 64.35 M0 64.35 C-0.33 55.14, -0.17 40.56, 0 21.45 M0 64.35 C-0.24 54.87, 0.82 43.98, 0 21.45 M0 21.45 C0.7 6.72, 7.19 0.92, 21.45 0 M0 21.45 C-1.46 8.81, 7.55 0.74, 21.45 0" stroke="#1e1e1e" stroke-width="1" fill="none"></path></g><g transform="translate(367.1262434385692 490.1378922109789) rotate(0 25.535987854003906 10)"><text x="25.535987854003906" y="14.016" font-family="Virgil, Segoe UI Emoji" font-size="16px" fill="#1e1e1e" text-anchor="middle" style="white-space: pre;" direction="ltr" dominant-baseline="alphabetic">events</text></g><g mask="url(#mask-w7NTPO9Pq-XXlZGZcGT4t)" stroke-linecap="round"><g transform="translate(318.1661375425731 173.07929846097892) rotate(0 -72.25390625 47.966796875)"><path d="M-0.7 -0.73 C-24.7 15.32, -121.39 80.51, -145.2 96.53 M1.14 1.5 C-22.37 17.17, -118.69 78.9, -142.86 94.72" stroke="#1e1e1e" stroke-width="1" fill="none"></path></g><g transform="translate(318.1661375425731 173.07929846097892) rotate(0 -72.25390625 47.966796875)"><path d="M-127.78 74.78 C-132 77.56, -132.84 84.31, -142.86 94.72 M-127.78 74.78 C-131.26 80.58, -136.1 85.26, -142.86 94.72" stroke="#1e1e1e" stroke-width="1" fill="none"></path></g><g transform="translate(318.1661375425731 173.07929846097892) rotate(0 -72.25390625 47.966796875)"><path d="M-118.49 89.13 C-124.62 88.96, -127.33 92.81, -142.86 94.72 M-118.49 89.13 C-124.39 91.36, -131.58 92.42, -142.86 94.72" stroke="#1e1e1e" stroke-width="1" fill="none"></path></g></g><mask id="mask-w7NTPO9Pq-XXlZGZcGT4t"><rect x="0" y="0" fill="#fff" width="562.6739500425731" height="369.0128922109789"></rect><rect x="200.16826614364732" y="211.04609533597886" fill="#000" width="91.48793029785156" height="20" opacity="1"></rect></mask><g transform="translate(200.16826614364732 211.04609533597886) rotate(0 45.96604810417159 9.93124072253704)"><text x="45.74396514892578" y="14.016" font-family="Virgil, Segoe UI Emoji" font-size="16px" fill="#1e1e1e" text-anchor="middle" style="white-space: pre;" direction="ltr" dominant-baseline="alphabetic">loop / flush</text></g><g mask="url(#mask-C-Gaf_7XPMmY0HqI8AeEb)" stroke-linecap="round"><g transform="translate(614.2283767217202 427.6363354384826) rotate(0 35.437630410426436 88.68046588624816)"><path d="M-1.16 -0.95 C2.28 16.42, 7.91 75.2, 19.73 104.72 C31.55 134.25, 61.31 164.21, 69.76 176.19 M0.43 1.16 C3.86 18.7, 7.27 76.97, 19.21 106.26 C31.15 135.55, 63.52 165.06, 72.08 176.9" stroke="#1e1e1e" stroke-width="1" fill="none"></path></g><g transform="translate(614.2283767217202 427.6363354384826) rotate(0 35.437630410426436 88.68046588624816)"><path d="M50.24 164.73 C53.63 169.03, 60.16 168.59, 72.08 176.9 M50.24 164.73 C54.3 167.04, 58.36 168.9, 72.08 176.9" stroke="#1e1e1e" stroke-width="1" fill="none"></path></g><g transform="translate(614.2283767217202 427.6363354384826) rotate(0 35.437630410426436 88.68046588624816)"><path d="M63.16 153.54 C63.68 160.24, 67.29 162.32, 72.08 176.9 M63.16 153.54 C64.58 158.04, 66.01 162.16, 72.08 176.9" stroke="#1e1e1e" stroke-width="1" fill="none"></path></g></g><mask id="mask-C-Gaf_7XPMmY0HqI8AeEb"><rect x="0" y="0" fill="#fff" width="785.1036375425731" height="704.9972672109789"></rect><rect x="616.7743376158153" y="522.3527359609789" fill="#000" width="32.767974853515625" height="20" opacity="1"></rect></mask><g transform="translate(616.7743376158153 522.3527359609789) rotate(0 32.91127968795206 -6.743340331795537)"><text x="16.383987426757812" y="14.016" font-family="Virgil, Segoe UI Emoji" font-size="16px" fill="#1e1e1e" text-anchor="middle" style="white-space: pre;" direction="ltr" dominant-baseline="alphabetic">ARU</text></g><g mask="url(#mask-2FLeI_WERDFroge7n6JJ9)" stroke-linecap="round"><g transform="translate(185.6700437925731 312.2160172109789) rotate(0 190.470703125 29.251953125)"><path d="M-0.86 0.9 C26.7 10.88, 101.35 55.99, 165.04 58.92 C228.73 61.86, 345.16 25.22, 381.28 18.5 M0.89 0.32 C28.87 10.02, 104.13 53.81, 167.43 57.02 C230.73 60.23, 344.86 25.83, 380.69 19.57" stroke="#1e1e1e" stroke-width="1" fill="none"></path></g><g transform="translate(185.6700437925731 312.2160172109789) rotate(0 190.470703125 29.251953125)"><path d="M359.71 33.16 C367.06 28.56, 372.02 26.42, 380.69 19.57 M359.71 33.16 C364.64 30.12, 370.93 26.03, 380.69 19.57" stroke="#1e1e1e" stroke-width="1" fill="none"></path></g><g transform="translate(185.6700437925731 312.2160172109789) rotate(0 190.470703125 29.251953125)"><path d="M355.88 16.49 C364.15 16.49, 370.15 18.92, 380.69 19.57 M355.88 16.49 C361.92 17.81, 369.21 18.06, 380.69 19.57" stroke="#1e1e1e" stroke-width="1" fill="none"></path></g></g><mask id="mask-2FLeI_WERDFroge7n6JJ9"><rect x="0" y="0" fill="#fff" width="666.6114500425731" height="470.7199234609789"></rect><rect x="239.19835647567857" y="360.71992346097886" fill="#000" width="224.25587463378906" height="20" opacity="1"></rect></mask><g transform="translate(239.19835647567857 360.71992346097886) rotate(0 136.68020012080672 -18.79872674029889)"><text x="112.12793731689453" y="14.016" font-family="Virgil, Segoe UI Emoji" font-size="16px" fill="#1e1e1e" text-anchor="middle" style="white-space: pre;" direction="ltr" dominant-baseline="alphabetic">fire / ask domain to update</text></g><g mask="url(#mask-k5_0NKFqu0YUykomnEeti)" stroke-linecap="round"><g transform="translate(566.716918792573 388.0935257018014) rotate(0 -55.93164062499994 54.778839453956834)"><path d="M-0.42 -0.28 C-18.89 18.26, -92.36 91.85, -111.06 110.05 M1.56 -1.47 C-16.97 16.81, -92.97 89.62, -111.59 108.18" stroke="#1e1e1e" stroke-width="1" fill="none"></path></g><g transform="translate(566.716918792573 388.0935257018014) rotate(0 -55.93164062499994 54.778839453956834)"><path d="M-100.74 85.66 C-104.44 93.21, -106.17 96.82, -111.59 108.18 M-100.74 85.66 C-102.34 91.93, -105.5 96.38, -111.59 108.18" stroke="#1e1e1e" stroke-width="1" fill="none"></path></g><g transform="translate(566.716918792573 388.0935257018014) rotate(0 -55.93164062499994 54.778839453956834)"><path d="M-88.8 97.91 C-95.69 102.01, -100.74 102.22, -111.59 108.18 M-88.8 97.91 C-93.36 101.16, -99.45 102.61, -111.59 108.18" stroke="#1e1e1e" stroke-width="1" fill="none"></path></g></g><mask id="mask-k5_0NKFqu0YUykomnEeti"><rect x="0" y="0" fill="#fff" width="778.5802000425729" height="597.651204609715"></rect><rect x="495.0732878111278" y="432.8723651557582" fill="#000" width="31.423980712890625" height="20" opacity="1"></rect></mask><g transform="translate(495.0732878111278 432.8723651557582) rotate(0 16.626676500746953 9.507894902671694)"><text x="15.711990356445312" y="14.016" font-family="Virgil, Segoe UI Emoji" font-size="16px" fill="#1e1e1e" text-anchor="middle" style="white-space: pre;" direction="ltr" dominant-baseline="alphabetic">emit</text></g><g mask="url(#mask--G6u-Qy30NmPCpM1mNzat)" stroke-linecap="round"><g transform="translate(665.5829200729095 314.78174426839604) rotate(0 45.50708964560863 -25.56020727870856)"><path d="M-0.01 1.03 C7.19 -7.36, 28.92 -47.67, 43.89 -50.1 C58.86 -52.52, 82 -19.36, 89.83 -13.53 M-1.47 0.53 C5.54 -8.21, 27.52 -49.02, 43.12 -51.68 C58.71 -54.34, 84.12 -21.65, 92.1 -15.44" stroke="#1e1e1e" stroke-width="1" fill="none"></path></g><g transform="translate(665.5829200729095 314.78174426839604) rotate(0 45.50708964560863 -25.56020727870856)"><path d="M69.4 -25.92 C79.26 -21.61, 87.35 -20.41, 92.1 -15.44 M69.4 -25.92 C77.1 -22.28, 85.73 -18.75, 92.1 -15.44" stroke="#1e1e1e" stroke-width="1" fill="none"></path></g><g transform="translate(665.5829200729095 314.78174426839604) rotate(0 45.50708964560863 -25.56020727870856)"><path d="M81.45 -38.06 C87.04 -29.41, 90.82 -23.88, 92.1 -15.44 M81.45 -38.06 C84.69 -30.02, 88.87 -22.02, 92.1 -15.44" stroke="#1e1e1e" stroke-width="1" fill="none"></path></g></g><mask id="mask--G6u-Qy30NmPCpM1mNzat"><rect x="0" y="0" fill="#fff" width="856.5970993641267" height="465.90215882581316"></rect><rect x="681.8590010069286" y="253.66132971097898" fill="#000" width="54.54396057128906" height="20" opacity="1"></rect></mask><g transform="translate(681.8590010069286 253.66132971097886) rotate(0 29.039666372828208 35.71967635574231)"><text x="27.27198028564453" y="14.016" font-family="Virgil, Segoe UI Emoji" font-size="16px" fill="#1e1e1e" text-anchor="middle" style="white-space: pre;" direction="ltr" dominant-baseline="alphabetic">update</text></g><g mask="url(#mask-sRWUEkMohxtEP8NkbHEQw)" stroke-linecap="round"><g transform="translate(871.0372312925731 274.7156590523318) rotate(0 72.55078125 -13.296542968688357)"><path d="M0.52 0.63 C24.83 -3.86, 122.24 -22.14, 146.17 -26.74 M-0.67 -0.08 C23.56 -4.41, 121.25 -20.99, 145.79 -25.28" stroke="#1e1e1e" stroke-width="1" fill="none"></path></g><g transform="translate(871.0372312925731 274.7156590523318) rotate(0 72.55078125 -13.296542968688357)"><path d="M124.09 -12.87 C132.14 -15.19, 137.85 -22.59, 145.79 -25.28 M124.09 -12.87 C130.77 -16.03, 135.94 -19.8, 145.79 -25.28" stroke="#1e1e1e" stroke-width="1" fill="none"></path></g><g transform="translate(871.0372312925731 274.7156590523318) rotate(0 72.55078125 -13.296542968688357)"><path d="M121.19 -29.72 C130.21 -26.61, 136.86 -28.55, 145.79 -25.28 M121.19 -29.72 C128.6 -28.36, 134.55 -27.61, 145.79 -25.28" stroke="#1e1e1e" stroke-width="1" fill="none"></path></g></g><mask id="mask-sRWUEkMohxtEP8NkbHEQw"><rect x="0" y="0" fill="#fff" width="1116.138793792573" height="401.3087449897085"></rect><rect x="924.6280287168895" y="251.41911608364342" fill="#000" width="37.91996765136719" height="20" opacity="1"></rect></mask><g transform="translate(924.6280287168895 251.4191160836433) rotate(0 19.161066808109183 10.242879936099087)"><text x="18.959983825683594" y="14.016" font-family="Virgil, Segoe UI Emoji" font-size="16px" fill="#1e1e1e" text-anchor="middle" style="white-space: pre;" direction="ltr" dominant-baseline="alphabetic">write</text></g><g mask="url(#mask-i-noTZ-GxDI3doNoTEOD0)" stroke-linecap="round"><g transform="translate(1448.041137542573 357.8598820336129) rotate(0 -140.09248725499967 41.686734098731336)"><path d="M0.27 -0.84 C-22.02 13.18, -87.28 81.9, -133.97 83.58 C-180.65 85.26, -255.43 21.53, -279.83 9.24 M-1.05 1.33 C-23.41 15.01, -87.93 80.61, -134.49 81.57 C-181.05 82.53, -256.12 19.37, -280.4 7.09" stroke="#1e1e1e" stroke-width="1" fill="none"></path></g><g transform="translate(1448.041137542573 357.8598820336129) rotate(0 -140.09248725499967 41.686734098731336)"><path d="M-256.04 12.7 C-264.28 12.51, -269.39 10.19, -280.4 7.09 M-256.04 12.7 C-263.57 10.26, -271.72 9.59, -280.4 7.09" stroke="#1e1e1e" stroke-width="1" fill="none"></path></g><g transform="translate(1448.041137542573 357.8598820336129) rotate(0 -140.09248725499967 41.686734098731336)"><path d="M-265.35 27.05 C-270.9 22.8, -273.38 16.44, -280.4 7.09 M-265.35 27.05 C-269.79 19.8, -274.88 14.4, -280.4 7.09" stroke="#1e1e1e" stroke-width="1" fill="none"></path></g></g><mask id="mask-i-noTZ-GxDI3doNoTEOD0"><rect x="0" y="0" fill="#fff" width="1828.2261120525725" height="541.2333502310755"></rect><rect x="1291.1928470685748" y="431.2333502310755" fill="#000" width="44.15997314453125" height="20" opacity="1"></rect></mask><g transform="translate(1291.1928470685748 431.2333502310755) rotate(0 16.78193187936924 -31.989117029474983)"><text x="22.079986572265625" y="14.016" font-family="Virgil, Segoe UI Emoji" font-size="16px" fill="#1e1e1e" text-anchor="middle" style="white-space: pre;" direction="ltr" dominant-baseline="alphabetic">notify</text></g><g mask="url(#mask-hLmwg_h1KGS8dJ9yVERBn)" stroke-linecap="round"><g transform="translate(1012.3106687925731 360.22672404678957) rotate(0 -72.1171875 -22.546314120849786)"><path d="M0.83 0.59 C-23.49 -6.68, -121.06 -37.02, -145.4 -44.73 M-0.19 -0.14 C-24.21 -7.69, -119.53 -39.25, -143.3 -46.66" stroke="#1e1e1e" stroke-width="1" fill="none"></path></g><g transform="translate(1012.3106687925731 360.22672404678957) rotate(0 -72.1171875 -22.546314120849786)"><path d="M-118.32 -47.59 C-125.93 -49.04, -134.92 -48.41, -143.3 -46.66 M-118.32 -47.59 C-124.97 -47.64, -131.45 -47.09, -143.3 -46.66" stroke="#1e1e1e" stroke-width="1" fill="none"></path></g><g transform="translate(1012.3106687925731 360.22672404678957) rotate(0 -72.1171875 -22.546314120849786)"><path d="M-123.57 -31.31 C-129.23 -38.4, -136.4 -43.37, -143.3 -46.66 M-123.57 -31.31 C-128.8 -35.47, -133.95 -39.06, -143.3 -46.66" stroke="#1e1e1e" stroke-width="1" fill="none"></path></g></g><mask id="mask-hLmwg_h1KGS8dJ9yVERBn"><rect x="0" y="0" fill="#fff" width="1256.545043792573" height="505.31935228848914"></rect><rect x="908.3455046080028" y="327.6804099259398" fill="#000" width="63.695953369140625" height="20" opacity="1"></rect></mask><g transform="translate(908.3455046080028 327.6804099259398) rotate(0 31.68043257892134 9.512340643997277)"><text x="31.847976684570312" y="14.016" font-family="Virgil, Segoe UI Emoji" font-size="16px" fill="#1e1e1e" text-anchor="middle" style="white-space: pre;" direction="ltr" dominant-baseline="alphabetic">message</text></g><g mask="url(#mask-H3HUqeBpdd4HwbeYBQQrh)" stroke-linecap="round"><g transform="translate(816.5119834629992 398.7316422109789) rotate(0 -87.13296557665211 70.80078125)"><path d="M-0.28 0.09 C-4.38 23.51, 4.81 135.94, -24.26 140.6 C-53.33 145.26, -149.84 46.87, -174.7 28.04 M1.77 -0.91 C-2.49 22.62, 4.47 136.56, -25.1 141.61 C-54.68 146.66, -151.1 48.23, -175.69 29.39" stroke="#1e1e1e" stroke-width="1" fill="none"></path></g><g transform="translate(816.5119834629992 398.7316422109789) rotate(0 -87.13296557665211 70.80078125)"><path d="M-152.44 38.58 C-159.88 35.85, -169.28 31.81, -175.69 29.39 M-152.44 38.58 C-160.47 36.46, -166.42 33.27, -175.69 29.39" stroke="#1e1e1e" stroke-width="1" fill="none"></path></g><g transform="translate(816.5119834629992 398.7316422109789) rotate(0 -87.13296557665211 70.80078125)"><path d="M-163.78 51.38 C-167.53 44.5, -173.23 36.29, -175.69 29.39 M-163.78 51.38 C-168.45 45.38, -170.94 38.28, -175.69 29.39" stroke="#1e1e1e" stroke-width="1" fill="none"></path></g></g><mask id="mask-H3HUqeBpdd4HwbeYBQQrh"><rect x="0" y="0" fill="#fff" width="1090.7779146163034" height="640.3332047109789"></rect><rect x="718.1407087706004" y="520.3332047109789" fill="#000" width="147.8399200439453" height="40" opacity="1"></rect></mask><g transform="translate(718.1407087706004 520.3332047109789) rotate(0 11.414183285373838 -51.15763681759802)"><text x="73.91996002197266" y="14.016" font-family="Virgil, Segoe UI Emoji" font-size="16px" fill="#1e1e1e" text-anchor="middle" style="white-space: pre;" direction="ltr" dominant-baseline="alphabetic">target &amp; request </text><text x="73.91996002197266" y="34.016" font-family="Virgil, Segoe UI Emoji" font-size="16px" fill="#1e1e1e" text-anchor="middle" style="white-space: pre;" direction="ltr" dominant-baseline="alphabetic">ARU</text></g><g stroke-linecap="round" transform="translate(1321.0750756317893 100.39232072693477) rotate(0 42.478515625 42.5)"><path d="M19.69 6.52 C19.69 6.52, 19.69 6.52, 19.69 6.52 M19.69 6.52 C19.69 6.52, 19.69 6.52, 19.69 6.52 M7.62 26.5 C13.71 20.67, 20.02 11.1, 26.65 4.61 M7.62 26.5 C11.72 20.03, 17.57 15.12, 26.65 4.61 M6.05 34.41 C17.08 23.66, 26.53 11.7, 33.6 2.71 M6.05 34.41 C16.05 22.17, 26.19 11.55, 33.6 2.71 M3.82 43.07 C12.77 31.95, 25.25 17.36, 40.56 0.81 M3.82 43.07 C16.86 27.58, 31.81 10.64, 40.56 0.81 M2.25 50.98 C14.06 37.85, 27.72 22.4, 44.23 2.68 M2.25 50.98 C14.16 36.4, 25.16 22.08, 44.23 2.68 M3.95 55.11 C17.58 34.8, 34.19 16.97, 48.56 3.79 M3.95 55.11 C19.45 36.52, 35.98 17.37, 48.56 3.79 M5.66 59.24 C20.5 42.7, 35.47 25.35, 53.55 4.15 M5.66 59.24 C19.8 42.93, 34.67 25.6, 53.55 4.15 M8.02 62.62 C22.74 42.05, 40.04 22.88, 57.88 5.27 M8.02 62.62 C23.69 43, 41.89 24.22, 57.88 5.27 M9.73 66.76 C27.87 44.29, 49.38 24.36, 62.21 6.38 M9.73 66.76 C26.5 47.1, 44.15 26.79, 62.21 6.38 M11.44 70.89 C28.81 52.89, 40.99 34.33, 67.2 6.74 M11.44 70.89 C30.66 48.91, 48.65 27.34, 67.2 6.74 M14.45 73.52 C27.56 58.58, 39.28 44.92, 69.56 10.12 M14.45 73.52 C35.57 49.83, 56.65 25.44, 69.56 10.12 M18.13 75.38 C33.68 60.11, 48.48 40.22, 71.93 13.5 M18.13 75.38 C30.46 61.61, 44.07 47.13, 71.93 13.5 M21.8 77.25 C37.59 61.19, 51.27 41.44, 74.29 16.88 M21.8 77.25 C36.16 60.49, 51.28 41.66, 74.29 16.88 M24.82 79.88 C36.82 64.75, 51.73 50.07, 77.31 19.5 M24.82 79.88 C46.06 54.76, 66.48 31.26, 77.31 19.5 M28.5 81.75 C40.33 70.08, 49.7 58.54, 79.67 22.88 M28.5 81.75 C40.52 68.59, 53.53 54.94, 79.67 22.88 M32.17 83.62 C48.12 66.26, 63.61 45.23, 82.03 26.26 M32.17 83.62 C51.32 60.16, 70.57 37.39, 82.03 26.26 M37.16 83.98 C48.58 72.77, 59.9 59.2, 83.08 31.15 M37.16 83.98 C53.14 66.63, 70.09 47.85, 83.08 31.15 M42.15 84.34 C55.3 67.93, 71.07 49.58, 84.13 36.04 M42.15 84.34 C55.9 68.32, 70.81 51.4, 84.13 36.04 M47.13 84.7 C58.88 71.38, 72.69 58.05, 85.18 40.92 M47.13 84.7 C60.48 69.28, 72.13 55.52, 85.18 40.92 M52.12 85.06 C65.62 71.91, 76.88 59.12, 86.24 45.81 M52.12 85.06 C63.15 72.24, 73.91 59, 86.24 45.81 M55.8 86.93 C67.04 72.02, 77.99 57.26, 87.29 50.7 M55.8 86.93 C64.52 77.67, 72.86 68, 87.29 50.7" stroke="#ffc9c9" stroke-width="0.5" fill="none"></path><path d="M41.97 0.25 C49.38 -0.44, 60.06 1.96, 66.46 6.04 C72.87 10.12, 77.26 17.59, 80.4 24.72 C83.54 31.85, 86.38 41.06, 85.29 48.81 C84.2 56.56, 79.14 65.3, 73.84 71.21 C68.55 77.13, 60.7 82.36, 53.51 84.31 C46.33 86.27, 37.97 85.26, 30.75 82.93 C23.52 80.61, 15.39 76, 10.17 70.37 C4.96 64.73, 0.4 56.8, -0.53 49.12 C-1.47 41.45, 1.16 31.46, 4.56 24.32 C7.97 17.17, 13.17 10.16, 19.92 6.25 C26.68 2.35, 40.47 1.85, 45.1 0.91 C49.73 -0.04, 47.49 -0.05, 47.7 0.56 M41.62 1.15 C48.66 -0.13, 56.46 0.58, 63.1 4.26 C69.73 7.93, 77.56 15.96, 81.42 23.2 C85.28 30.44, 87.14 40.34, 86.24 47.72 C85.34 55.1, 80.95 61.71, 76.02 67.48 C71.09 73.26, 63.87 79.86, 56.65 82.36 C49.42 84.87, 40.03 84.13, 32.66 82.51 C25.28 80.9, 17.72 78.07, 12.4 72.68 C7.08 67.29, 2.12 57.86, 0.74 50.17 C-0.63 42.48, 1.16 33.35, 4.13 26.55 C7.1 19.76, 12.59 14.03, 18.56 9.38 C24.53 4.73, 36.3 0.2, 39.97 -1.36 C43.64 -2.91, 40.6 -0.87, 40.6 0.03" stroke="#e03131" stroke-width="1" fill="none"></path></g><g transform="translate(1344.8767683021483 130.34028252650654) rotate(0 18.639976501464844 12.5)"><text x="18.639976501464844" y="17.52" font-family="Virgil, Segoe UI Emoji" font-size="20px" fill="#1e1e1e" text-anchor="middle" style="white-space: pre;" direction="ltr" dominant-baseline="alphabetic">loop</text></g><g mask="url(#mask-tzJWPbn4zgoPFWjpoJrre)" stroke-linecap="round"><g transform="translate(657.7872312925731 677.6222672109789) rotate(0 -103.904296875 -65.92578125)"><path d="M-0.9 -1.01 C-25.15 -2.9, -111.43 9.43, -146.09 -12.4 C-180.74 -34.24, -198.37 -112.18, -208.82 -132.02 M0.83 1.07 C-23.43 -0.6, -111.91 10.64, -146.46 -11.34 C-181.01 -33.32, -196.02 -111, -206.46 -130.8" stroke="#1e1e1e" stroke-width="1" fill="none"></path></g><g transform="translate(657.7872312925731 677.6222672109789) rotate(0 -103.904296875 -65.92578125)"><path d="M-190.4 -111.63 C-195.97 -114.77, -199.86 -123.12, -206.46 -130.8 M-190.4 -111.63 C-194.92 -117.42, -200.08 -123.5, -206.46 -130.8" stroke="#1e1e1e" stroke-width="1" fill="none"></path></g><g transform="translate(657.7872312925731 677.6222672109789) rotate(0 -103.904296875 -65.92578125)"><path d="M-206.48 -105.8 C-207.93 -110.29, -207.76 -120.11, -206.46 -130.8 M-206.48 -105.8 C-206.36 -113.31, -206.92 -121.05, -206.46 -130.8" stroke="#1e1e1e" stroke-width="1" fill="none"></path></g></g><mask id="mask-tzJWPbn4zgoPFWjpoJrre"><rect x="0" y="0" fill="#fff" width="965.5958250425731" height="909.4738297109789"></rect><rect x="444.63157638534653" y="646.1300797109789" fill="#000" width="131.95193481445312" height="40" opacity="1"></rect></mask><g transform="translate(444.63157638534653 646.1300797109789) rotate(0 109.16114113867746 -33.27536741050642)"><text x="65.97596740722656" y="14.016" font-family="Virgil, Segoe UI Emoji" font-size="16px" fill="#1e1e1e" text-anchor="middle" style="white-space: pre;" direction="ltr" dominant-baseline="alphabetic">emit / individual </text><text x="65.97596740722656" y="34.016" font-family="Virgil, Segoe UI Emoji" font-size="16px" fill="#1e1e1e" text-anchor="middle" style="white-space: pre;" direction="ltr" dominant-baseline="alphabetic">update</text></g><g stroke-linecap="round" transform="translate(811.7946420657215 882.3216268344631) rotate(0 80.99099685946624 28.459471019045736)"><path d="M1.92 5.65 C1.92 5.65, 1.92 5.65, 1.92 5.65 M1.92 5.65 C1.92 5.65, 1.92 5.65, 1.92 5.65 M1.01 12.8 C3.18 9.54, 5.2 6.3, 10.85 1.48 M1.01 12.8 C4.02 9.22, 5.54 7.9, 10.85 1.48 M0.74 19.2 C6.9 10.43, 11.27 5.46, 17.15 0.33 M0.74 19.2 C6.52 12.05, 12.9 5.36, 17.15 0.33 M1.14 24.84 C5.08 18.01, 11.1 14.62, 22.13 0.69 M1.14 24.84 C8.06 16.69, 16.73 8.13, 22.13 0.69 M0.88 31.24 C8.18 21.77, 18.33 9.75, 27.78 0.3 M0.88 31.24 C8.97 22.14, 18.39 12.57, 27.78 0.3 M0.62 37.64 C11.66 23.05, 23.91 12.79, 32.76 0.66 M0.62 37.64 C7.91 29.3, 16.1 20.58, 32.76 0.66 M1.01 43.28 C9.92 31.23, 20.36 18.47, 38.41 0.26 M1.01 43.28 C12.85 29.16, 24.72 15.56, 38.41 0.26 M1.41 48.92 C15.02 34.26, 26.44 22.59, 43.39 0.62 M1.41 48.92 C13.43 36.34, 23.05 22.99, 43.39 0.62 M3.77 52.3 C20.05 34.35, 37.66 11.89, 49.04 0.23 M3.77 52.3 C15.67 38.59, 28.77 24.08, 49.04 0.23 M6.79 54.93 C18.7 45.7, 26.2 31.85, 54.02 0.59 M6.79 54.93 C19.11 40.73, 29.42 28.89, 54.02 0.59 M11.12 56.04 C26.16 37.04, 43.54 22.16, 59.67 0.19 M11.12 56.04 C26.84 37.83, 40.48 21.28, 59.67 0.19 M16.11 56.4 C36.11 35, 54.05 12.6, 64.65 0.55 M16.11 56.4 C25.68 44.01, 37.51 32.93, 64.65 0.55 M21.75 56.01 C40.37 33.73, 56.98 13, 69.64 0.91 M21.75 56.01 C39.2 36.17, 57.3 15.01, 69.64 0.91 M26.74 56.37 C38.96 42.33, 50.71 25.8, 75.28 0.52 M26.74 56.37 C40.7 41.16, 53.42 25.86, 75.28 0.52 M31.72 56.73 C51.29 33.36, 71.08 11.79, 80.27 0.88 M31.72 56.73 C45.22 41.33, 57.42 27.45, 80.27 0.88 M37.37 56.33 C52.97 39.96, 64.89 23.67, 85.91 0.48 M37.37 56.33 C53.43 37.24, 70.56 20.1, 85.91 0.48 M42.35 56.69 C58.52 37.44, 75.06 16.59, 90.9 0.84 M42.35 56.69 C53.12 43.45, 65.67 29.5, 90.9 0.84 M48 56.3 C65.97 31.75, 85.87 10.82, 96.54 0.45 M48 56.3 C65.75 37.4, 82.48 16.44, 96.54 0.45 M52.98 56.66 C71.35 34.94, 92.71 10.66, 101.53 0.81 M52.98 56.66 C70.07 37, 88.87 16.38, 101.53 0.81 M58.63 56.26 C75.69 35.52, 93.09 19.3, 106.52 1.17 M58.63 56.26 C73.01 39.03, 89.8 20.06, 106.52 1.17 M63.61 56.62 C75.43 43.21, 90.69 26.37, 112.16 0.77 M63.61 56.62 C80.75 37.49, 97.56 16.82, 112.16 0.77 M68.6 56.98 C79.39 44.09, 92.01 30.86, 117.15 1.13 M68.6 56.98 C81.49 40.39, 96.75 23.93, 117.15 1.13 M74.24 56.59 C86.47 42.61, 97.05 27.72, 122.79 0.74 M74.24 56.59 C92.28 36.16, 109.93 14.89, 122.79 0.74 M79.23 56.95 C97.09 35.81, 113.39 17.33, 127.78 1.1 M79.23 56.95 C93.63 38.14, 110.27 20.79, 127.78 1.1 M84.87 56.55 C101.22 35.21, 121.33 17.63, 133.42 0.71 M84.87 56.55 C93.56 45.66, 104.34 34.29, 133.42 0.71 M89.86 56.91 C103.61 42.41, 116.73 26.41, 138.41 1.07 M89.86 56.91 C105.77 39.35, 120.14 21.91, 138.41 1.07 M95.5 56.52 C108.67 44.2, 119.94 28.79, 143.4 1.43 M95.5 56.52 C108.31 41.42, 120.77 26.13, 143.4 1.43 M100.49 56.88 C111.15 45.04, 122.03 32.13, 149.04 1.03 M100.49 56.88 C112.15 44.76, 123.67 32.35, 149.04 1.03 M105.48 57.24 C117.12 45.51, 126.2 31.33, 154.03 1.39 M105.48 57.24 C116.01 45.63, 128.62 32.02, 154.03 1.39 M111.12 56.84 C127.71 40.25, 142.54 18.75, 157.7 3.26 M111.12 56.84 C122.12 43.62, 132.33 30.96, 157.7 3.26 M116.11 57.2 C129.42 42.25, 140.71 29.33, 160.72 5.88 M116.11 57.2 C125.29 47.11, 133.86 35.91, 160.72 5.88 M121.75 56.81 C136.47 42.68, 149.28 25.3, 161.77 10.77 M121.75 56.81 C136.62 39.74, 152.02 21.72, 161.77 10.77 M126.74 57.17 C136.2 44.43, 147.35 34.38, 162.16 16.42 M126.74 57.17 C138.18 43.45, 149.36 30.76, 162.16 16.42 M132.38 56.78 C140.09 46.89, 148.4 36.12, 162.56 22.06 M132.38 56.78 C141.36 47.04, 148.51 37.53, 162.56 22.06 M137.37 57.14 C143.47 49.85, 154.42 39.4, 162.3 28.46 M137.37 57.14 C146.2 46.38, 155.27 36.06, 162.3 28.46 M142.35 57.5 C149.41 50.38, 152.34 44.69, 162.04 34.85 M142.35 57.5 C147.16 52.57, 153.5 45.58, 162.04 34.85 M148 57.1 C154.03 49.91, 155.56 46.98, 161.77 41.25 M148 57.1 C153.64 52.24, 156.33 46.26, 161.77 41.25 M154.3 55.95 C155.4 53.24, 157.82 53.19, 161.51 47.65 M154.3 55.95 C156.01 53.36, 157.62 51.62, 161.51 47.65" stroke="#ffec99" stroke-width="0.5" fill="none"></path><path d="M14.23 0 C66.74 -1.75, 116.12 1.16, 147.75 0 M14.23 0 C47.87 -1.53, 82.89 -1.18, 147.75 0 M147.75 0 C158.17 0.57, 163.32 5.72, 161.98 14.23 M147.75 0 C155.01 -0.38, 161.78 5.58, 161.98 14.23 M161.98 14.23 C163.08 20.14, 162.2 31.36, 161.98 42.69 M161.98 14.23 C162.73 22.21, 162.76 30.84, 161.98 42.69 M161.98 42.69 C161.9 52.19, 157.29 55.53, 147.75 56.92 M161.98 42.69 C161.38 52.71, 158.3 59.07, 147.75 56.92 M147.75 56.92 C114.69 58.56, 84.97 55.86, 14.23 56.92 M147.75 56.92 C101.45 57.21, 56.17 57.7, 14.23 56.92 M14.23 56.92 C3.51 57.06, -0.36 51.07, 0 42.69 M14.23 56.92 C6.4 56.85, -0.66 53.7, 0 42.69 M0 42.69 C1.17 33.96, 0.33 27.21, 0 14.23 M0 42.69 C0.1 33.22, 0.67 24.95, 0 14.23 M0 14.23 C0.05 5.11, 6.3 -1.39, 14.23 0 M0 14.23 C-0.21 5.62, 5.99 0.11, 14.23 0" stroke="#1e1e1e" stroke-width="1" fill="none"></path></g><g transform="translate(843.073671456926 890.7810978535088) rotate(0 49.71196746826172 20)"><text x="49.71196746826172" y="14.016" font-family="Virgil, Segoe UI Emoji" font-size="16px" fill="#1e1e1e" text-anchor="middle" style="white-space: pre;" direction="ltr" dominant-baseline="alphabetic">extended</text><text x="49.71196746826172" y="34.016" font-family="Virgil, Segoe UI Emoji" font-size="16px" fill="#1e1e1e" text-anchor="middle" style="white-space: pre;" direction="ltr" dominant-baseline="alphabetic">leaflet layer</text></g><g stroke-linecap="round" transform="translate(624.6040911498841 921.4596064908435) rotate(0 80.99099685946624 28.459471019045736)"><path d="M1.92 5.65 C1.92 5.65, 1.92 5.65, 1.92 5.65 M1.92 5.65 C1.92 5.65, 1.92 5.65, 1.92 5.65 M1.01 12.8 C3.55 9.12, 8 5.44, 10.85 1.48 M1.01 12.8 C3.07 10.25, 5.76 8.47, 10.85 1.48 M0.74 19.2 C7.49 14.76, 12.76 4.3, 17.15 0.33 M0.74 19.2 C4.28 15.47, 6.75 11.77, 17.15 0.33 M1.14 24.84 C7.61 15.36, 18.72 5.41, 22.13 0.69 M1.14 24.84 C9.51 15.14, 16.34 7.02, 22.13 0.69 M0.88 31.24 C8.92 20.23, 21.13 9.09, 27.78 0.3 M0.88 31.24 C6.26 24.36, 12.98 15.73, 27.78 0.3 M0.62 37.64 C6.24 28.99, 15.75 19.16, 32.76 0.66 M0.62 37.64 C9.2 26.48, 17.96 16.8, 32.76 0.66 M1.01 43.28 C14.49 29.86, 23.4 17.37, 38.41 0.26 M1.01 43.28 C10.29 32.87, 18.33 23.16, 38.41 0.26 M1.41 48.92 C17.81 30.39, 34.63 10.27, 43.39 0.62 M1.41 48.92 C10.7 38.71, 20.01 28.35, 43.39 0.62 M3.77 52.3 C20.52 31.27, 36.83 12.99, 49.04 0.23 M3.77 52.3 C15.85 38.32, 28.49 26.01, 49.04 0.23 M6.79 54.93 C19.83 37.62, 32.97 21.6, 54.02 0.59 M6.79 54.93 C16.86 42.71, 28.61 29.96, 54.02 0.59 M11.12 56.04 C28.17 33.77, 49.48 13.6, 59.67 0.19 M11.12 56.04 C27.11 37.41, 41.37 20.15, 59.67 0.19 M16.11 56.4 C30.45 39, 45.38 21.07, 64.65 0.55 M16.11 56.4 C30.28 40.56, 42.59 26.37, 64.65 0.55 M21.75 56.01 C36.87 37.57, 53.48 16.55, 69.64 0.91 M21.75 56.01 C39.64 34.55, 58.53 13.25, 69.64 0.91 M26.74 56.37 C42.48 35.28, 63.34 12.85, 75.28 0.52 M26.74 56.37 C44.73 37.37, 59.51 18.09, 75.28 0.52 M31.72 56.73 C49.29 36.38, 64.57 15.62, 80.27 0.88 M31.72 56.73 C41.78 45.25, 52.55 31.22, 80.27 0.88 M37.37 56.33 C48.66 40.43, 61.45 24.49, 85.91 0.48 M37.37 56.33 C54 36.94, 70.9 18.75, 85.91 0.48 M42.35 56.69 C56.11 38.53, 71.94 19.34, 90.9 0.84 M42.35 56.69 C56.78 39.94, 71.53 23.09, 90.9 0.84 M48 56.3 C59.35 43.51, 72.76 26.63, 96.54 0.45 M48 56.3 C64.35 37.59, 82.31 17.78, 96.54 0.45 M52.98 56.66 C72.16 35.91, 89.43 13.44, 101.53 0.81 M52.98 56.66 C67.79 39.71, 81.85 24.15, 101.53 0.81 M58.63 56.26 C75.11 34.52, 92.43 16.22, 106.52 1.17 M58.63 56.26 C69.39 42.96, 80.96 31.34, 106.52 1.17 M63.61 56.62 C80.32 35.74, 101.09 15.54, 112.16 0.77 M63.61 56.62 C74.75 43.81, 86.05 29.86, 112.16 0.77 M68.6 56.98 C84.92 37.86, 103.38 15.72, 117.15 1.13 M68.6 56.98 C86.12 36.03, 103.39 16.86, 117.15 1.13 M74.24 56.59 C86.49 40.45, 101.49 25.17, 122.79 0.74 M74.24 56.59 C89.06 39.11, 103.96 22.28, 122.79 0.74 M79.23 56.95 C94.52 36.51, 113.07 19.44, 127.78 1.1 M79.23 56.95 C96.16 38.32, 113.21 18.07, 127.78 1.1 M84.87 56.55 C99.51 37.83, 119.71 17.96, 133.42 0.71 M84.87 56.55 C96.76 41.89, 108.86 27.26, 133.42 0.71 M89.86 56.91 C105.77 41.2, 122.18 21.38, 138.41 1.07 M89.86 56.91 C104.32 40.14, 117.09 25.42, 138.41 1.07 M95.5 56.52 C110.43 37.92, 127.5 19.46, 143.4 1.43 M95.5 56.52 C105.78 44.03, 115.36 32.21, 143.4 1.43 M100.49 56.88 C115.55 39.69, 127.99 22.75, 149.04 1.03 M100.49 56.88 C115.16 41.24, 129.52 25.05, 149.04 1.03 M105.48 57.24 C121.62 38.62, 138.02 21.65, 154.03 1.39 M105.48 57.24 C117.14 44.43, 127.9 32.98, 154.03 1.39 M111.12 56.84 C126.94 39.98, 143.08 19.69, 157.7 3.26 M111.12 56.84 C121.64 45.92, 133.39 33.43, 157.7 3.26 M116.11 57.2 C131.9 38.27, 146.34 21.11, 160.72 5.88 M116.11 57.2 C132.03 39.31, 147.02 21.44, 160.72 5.88 M121.75 56.81 C134.87 40.97, 151.79 24.65, 161.77 10.77 M121.75 56.81 C133.54 42.89, 145.3 30.04, 161.77 10.77 M126.74 57.17 C141.13 39.57, 155.63 23.22, 162.16 16.42 M126.74 57.17 C141.2 41.98, 154.28 24.67, 162.16 16.42 M132.38 56.78 C138.89 47.29, 148.1 37.92, 162.56 22.06 M132.38 56.78 C141.17 46.73, 149.25 36.2, 162.56 22.06 M137.37 57.14 C145.61 48.48, 154.38 40.25, 162.3 28.46 M137.37 57.14 C144.31 48.38, 152.93 39.68, 162.3 28.46 M142.35 57.5 C146.04 51.35, 150.01 45.85, 162.04 34.85 M142.35 57.5 C149.62 50.61, 155.39 42.14, 162.04 34.85 M148 57.1 C154.36 50.36, 159.29 46.61, 161.77 41.25 M148 57.1 C151.95 52.57, 154.95 49.21, 161.77 41.25 M154.3 55.95 C156.23 54.14, 158.33 51.26, 161.51 47.65 M154.3 55.95 C156.92 53.3, 159.59 50.3, 161.51 47.65" stroke="#ffec99" stroke-width="0.5" fill="none"></path><path d="M14.23 0 C61.03 -1.24, 107.15 0.85, 147.75 0 M14.23 0 C66.76 0.27, 120.27 0.31, 147.75 0 M147.75 0 C155.9 -0.83, 161.99 4.95, 161.98 14.23 M147.75 0 C157.11 -2.06, 163.91 6.34, 161.98 14.23 M161.98 14.23 C160.6 24.71, 161.6 37.65, 161.98 42.69 M161.98 14.23 C162.96 22.52, 162.7 31.87, 161.98 42.69 M161.98 42.69 C160.72 54.06, 156 55.12, 147.75 56.92 M161.98 42.69 C162.02 53.26, 159.17 57.33, 147.75 56.92 M147.75 56.92 C102.73 55.62, 62.14 58.32, 14.23 56.92 M147.75 56.92 C94.99 58.99, 41.53 58.75, 14.23 56.92 M14.23 56.92 C4.09 57.9, -0.08 53.26, 0 42.69 M14.23 56.92 C5.97 56.64, -1.03 51.89, 0 42.69 M0 42.69 C0.59 33.39, 0.01 23.6, 0 14.23 M0 42.69 C-0.2 35.64, -0.26 29.03, 0 14.23 M0 14.23 C0.54 6.27, 5.17 0.82, 14.23 0 M0 14.23 C1.44 5.89, 2.57 -0.21, 14.23 0" stroke="#1e1e1e" stroke-width="1" fill="none"></path></g><g transform="translate(678.2431135220456 929.9190775098891) rotate(0 27.351974487304688 20)"><text x="27.351974487304688" y="14.016" font-family="Virgil, Segoe UI Emoji" font-size="16px" fill="#1e1e1e" text-anchor="middle" style="white-space: pre;" direction="ltr" dominant-baseline="alphabetic">project</text><text x="27.351974487304688" y="34.016" font-family="Virgil, Segoe UI Emoji" font-size="16px" fill="#1e1e1e" text-anchor="middle" style="white-space: pre;" direction="ltr" dominant-baseline="alphabetic">object</text></g><g mask="url(#mask-ZRFRJZXhXXTvo-p4yoqES)" stroke-linecap="round"><g transform="translate(745.6066450253115 911.7088337787436) rotate(0 -39.111984175535895 -74.57345732678186)"><path d="M-0.86 0.24 C-14.11 -7.72, -70.56 -22.07, -79.04 -46.89 C-87.53 -71.71, -56.57 -131.72, -51.77 -148.68 M0.88 -0.68 C-12.01 -9.05, -67.82 -23.55, -76.76 -48.57 C-85.71 -73.58, -56.73 -133.71, -52.79 -150.77" stroke="#1e1e1e" stroke-width="1" fill="none"></path></g><g transform="translate(745.6066450253115 911.7088337787436) rotate(0 -39.111984175535895 -74.57345732678186)"><path d="M-52.39 -125.77 C-52.3 -135.5, -51.43 -143.28, -52.79 -150.77 M-52.39 -125.77 C-52.46 -134.01, -52.88 -141.93, -52.79 -150.77" stroke="#1e1e1e" stroke-width="1" fill="none"></path></g><g transform="translate(745.6066450253115 911.7088337787436) rotate(0 -39.111984175535895 -74.57345732678186)"><path d="M-68.55 -131.37 C-63.02 -139.11, -56.75 -145.02, -52.79 -150.77 M-68.55 -131.37 C-63.09 -137.78, -58.02 -143.8, -52.79 -150.77" stroke="#1e1e1e" stroke-width="1" fill="none"></path></g></g><mask id="mask-ZRFRJZXhXXTvo-p4yoqES"><rect x="0" y="0" fill="#fff" width="923.8306133763833" height="1160.8557484323073"></rect><rect x="641.3266921771694" y="853.9722144153425" fill="#000" width="52.111968994140625" height="20" opacity="1"></rect></mask><g transform="translate(641.3266921771694 853.9722144153425) rotate(0 64.46827537056572 -17.527260213864906)"><text x="26.055984497070312" y="14.016" font-family="Virgil, Segoe UI Emoji" font-size="16px" fill="#1e1e1e" text-anchor="middle" style="white-space: pre;" direction="ltr" dominant-baseline="alphabetic">extend</text></g><g mask="url(#mask-HfqJva0wl3jV7jbWucBfA)" stroke-linecap="round"><g transform="translate(821.5061666811132 873.7371064044655) rotate(0 -40.642481850250476 -55.929280143599954)"><path d="M0.66 -0.24 C-11.07 -10.44, -56.62 -43.47, -70.17 -61.88 C-83.72 -80.29, -78.82 -102.48, -80.64 -110.71 M-0.45 -1.41 C-12.36 -11.39, -57.67 -42.08, -71.11 -60.59 C-84.55 -79.1, -79.47 -103.62, -81.07 -112.45" stroke="#1e1e1e" stroke-width="1" fill="none"></path></g><g transform="translate(821.5061666811132 873.7371064044655) rotate(0 -40.642481850250476 -55.929280143599954)"><path d="M-71.88 -89.21 C-75.08 -96.54, -78.4 -102.92, -81.07 -112.45 M-71.88 -89.21 C-75.77 -97.84, -79.26 -107.01, -81.07 -112.45" stroke="#1e1e1e" stroke-width="1" fill="none"></path></g><g transform="translate(821.5061666811132 873.7371064044655) rotate(0 -40.642481850250476 -55.929280143599954)"><path d="M-88.97 -88.73 C-86.72 -96.31, -84.59 -102.85, -81.07 -112.45 M-88.97 -88.73 C-86.1 -97.63, -82.84 -106.99, -81.07 -112.45" stroke="#1e1e1e" stroke-width="1" fill="none"></path></g></g><mask id="mask-HfqJva0wl3jV7jbWucBfA"><rect x="0" y="0" fill="#fff" width="1002.7911303816142" height="1085.5956666916654"></rect><rect x="734.5133192169307" y="802.3295467759326" fill="#000" width="33.5999755859375" height="20" opacity="1"></rect></mask><g transform="translate(734.5133192169307 802.3295467759324) rotate(0 46.7870291020119 15.061512584657294)"><text x="16.79998779296875" y="14.016" font-family="Virgil, Segoe UI Emoji" font-size="16px" fill="#1e1e1e" text-anchor="middle" style="white-space: pre;" direction="ltr" dominant-baseline="alphabetic">mixin</text></g><g stroke-linecap="round" transform="translate(672.9356687925731 613.1886734609789) rotate(0 47.564453125 18.65625)"><path d="M9.33 0 C41.06 -0.49, 68.14 -1.16, 85.8 0 M9.33 0 C24.47 -0.02, 40.01 0.99, 85.8 0 M85.8 0 C91.14 -0.94, 96.37 2.27, 95.13 9.33 M85.8 0 C93.31 -1.85, 93.19 4.53, 95.13 9.33 M95.13 9.33 C94.58 16.14, 94.76 25.68, 95.13 27.98 M95.13 9.33 C95.82 14.49, 95.16 20.37, 95.13 27.98 M95.13 27.98 C97.06 33.71, 90.72 35.96, 85.8 37.31 M95.13 27.98 C97.2 34.21, 93.53 37.11, 85.8 37.31 M85.8 37.31 C63.32 39.48, 36.18 39.65, 9.33 37.31 M85.8 37.31 C66.11 36.21, 45.33 35.94, 9.33 37.31 M9.33 37.31 C2.84 38.42, 1.35 35.49, 0 27.98 M9.33 37.31 C0.89 36.6, 1.1 35.16, 0 27.98 M0 27.98 C0.08 21.42, -1.9 13.15, 0 9.33 M0 27.98 C-0.16 24.44, 0.38 20.53, 0 9.33 M0 9.33 C-1.19 4.4, 2.01 1.39, 9.33 0 M0 9.33 C-1.72 3.29, 3.36 2.05, 9.33 0" stroke="#1e1e1e" stroke-width="1" fill="none"></path></g><g transform="translate(702.6201322935497 621.8449234609789) rotate(0 17.879989624023438 10)"><text x="17.879989624023438" y="14.016" font-family="Virgil, Segoe UI Emoji" font-size="16px" fill="#1e1e1e" text-anchor="middle" style="white-space: pre;" direction="ltr" dominant-baseline="alphabetic">item1</text></g><g stroke-linecap="round" transform="translate(670.1837156675731 663.1925797109789) rotate(0 47.564453125 18.65625)"><path d="M9.33 0 C38.85 -0.03, 64.84 -1.4, 85.8 0 M9.33 0 C32.49 0.52, 57.32 -0.28, 85.8 0 M85.8 0 C93.99 0.1, 94.45 1.2, 95.13 9.33 M85.8 0 C93.8 0.66, 94.96 4.41, 95.13 9.33 M95.13 9.33 C96.76 15.58, 95.57 23.77, 95.13 27.98 M95.13 9.33 C95.47 17.1, 95.44 23.75, 95.13 27.98 M95.13 27.98 C97.12 35.88, 90.62 37.91, 85.8 37.31 M95.13 27.98 C93.44 35.89, 90.92 35.14, 85.8 37.31 M85.8 37.31 C58.83 37.43, 34.75 36.99, 9.33 37.31 M85.8 37.31 C70.85 37.14, 55.38 36.95, 9.33 37.31 M9.33 37.31 C4.17 38.82, 0.42 35.02, 0 27.98 M9.33 37.31 C3.4 39.19, -1.94 33.6, 0 27.98 M0 27.98 C0.28 22.99, -0.89 16.92, 0 9.33 M0 27.98 C-0.86 20.47, -0.14 13.93, 0 9.33 M0 9.33 C1.23 2.64, 4.86 0.06, 9.33 0 M0 9.33 C-2.24 3.35, 1.86 -1.45, 9.33 0" stroke="#1e1e1e" stroke-width="1" fill="none"></path></g><g transform="translate(696.34017929062 671.8488297109789) rotate(0 21.407989501953125 10)"><text x="21.407989501953125" y="14.016" font-family="Virgil, Segoe UI Emoji" font-size="16px" fill="#1e1e1e" text-anchor="middle" style="white-space: pre;" direction="ltr" dominant-baseline="alphabetic">item2</text></g><g stroke-linecap="round" transform="translate(671.2618406675731 714.8683609609789) rotate(0 47.564453125 18.65625)"><path d="M9.33 0 C30.84 -0.34, 50.55 -1.58, 85.8 0 M9.33 0 C30.93 0.53, 53.12 -0.5, 85.8 0 M85.8 0 C91.89 -0.01, 93.65 2.07, 95.13 9.33 M85.8 0 C91.68 -0.2, 96.86 2.29, 95.13 9.33 M95.13 9.33 C95.02 12.46, 96.85 15.93, 95.13 27.98 M95.13 9.33 C94.92 13.75, 94.77 19.12, 95.13 27.98 M95.13 27.98 C95 35.3, 90.18 37.6, 85.8 37.31 M95.13 27.98 C96.36 35.61, 92.84 38.26, 85.8 37.31 M85.8 37.31 C61.31 38.17, 36.27 38.25, 9.33 37.31 M85.8 37.31 C63.32 36.75, 38.27 37.95, 9.33 37.31 M9.33 37.31 C1.66 36.7, -0.15 34.61, 0 27.98 M9.33 37.31 C1.44 38.55, -0.86 34.27, 0 27.98 M0 27.98 C-0.3 21.21, -1.74 15.41, 0 9.33 M0 27.98 C-0.22 20.67, -0.6 14.49, 0 9.33 M0 9.33 C0.58 1.29, 2.29 -0.03, 9.33 0 M0 9.33 C-2.18 5.29, 4.25 2.15, 9.33 0" stroke="#1e1e1e" stroke-width="1" fill="none"></path></g><g transform="translate(697.6663053892528 723.5246109609789) rotate(0 21.159988403320312 10)"><text x="21.159988403320312" y="14.016" font-family="Virgil, Segoe UI Emoji" font-size="16px" fill="#1e1e1e" text-anchor="middle" style="white-space: pre;" direction="ltr" dominant-baseline="alphabetic">item3</text></g><g stroke-linecap="round" transform="translate(621.319947314329 592.1648363005258) rotate(0 103.33334082069814 93.3368926883976)"><path d="M137.33 4.86 C149.75 7.31, 163.08 15.55, 173.08 23.67 C183.09 31.79, 191.66 42.8, 197.38 53.57 C203.09 64.35, 206.75 76.36, 207.39 88.31 C208.03 100.26, 205.89 114.14, 201.23 125.29 C196.57 136.43, 188.3 146.47, 179.43 155.16 C170.57 163.84, 159.72 172.29, 148.05 177.4 C136.39 182.51, 122.66 185.09, 109.45 185.8 C96.24 186.52, 81.29 185.51, 68.77 181.71 C56.25 177.9, 44.14 171.16, 34.33 162.97 C24.51 154.78, 15.41 143.58, 9.88 132.58 C4.34 121.58, 1.7 108.72, 1.1 96.98 C0.5 85.24, 1.92 73.06, 6.29 62.16 C10.67 51.25, 18.55 40.24, 27.38 31.54 C36.21 22.83, 47.57 15.27, 59.3 9.93 C71.02 4.6, 84.21 -0.02, 97.73 -0.45 C111.26 -0.87, 132.74 5.74, 140.46 7.39 C148.17 9.04, 144.4 8.02, 144.01 9.46" stroke="#e03131" stroke-width="1.5" fill="none" stroke-dasharray="8 9"></path></g><g mask="url(#mask-sKTUb9ywYkuByc_ucy-hJ)" stroke-linecap="round"><g transform="translate(1161.739360959036 329.4483354638656) rotate(0 76.87376108515036 -88.87491777028328)"><path d="M-0.89 0.06 C24.91 -29.51, 128.87 -148.68, 154.78 -178.19 M0.85 -0.95 C26.58 -30.29, 128.81 -147.21, 154.38 -176.89" stroke="#e03131" stroke-width="1" fill="none"></path></g><g transform="translate(1161.739360959036 329.4483354638656) rotate(0 76.87376108515036 -88.87491777028328)"><path d="M145.42 -153.55 C148.36 -158.74, 150.2 -166.03, 154.38 -176.89 M145.42 -153.55 C148.96 -161.64, 151.52 -170.86, 154.38 -176.89" stroke="#e03131" stroke-width="1" fill="none"></path></g><g transform="translate(1161.739360959036 329.4483354638656) rotate(0 76.87376108515036 -88.87491777028328)"><path d="M132.52 -164.76 C139.25 -166.51, 144.95 -170.43, 154.38 -176.89 M132.52 -164.76 C140.71 -168.9, 147.93 -174.08, 154.38 -176.89" stroke="#e03131" stroke-width="1" fill="none"></path></g></g><mask id="mask-sKTUb9ywYkuByc_ucy-hJ"><rect x="0" y="0" fill="#fff" width="1415.4868831293368" height="607.1981710044322"></rect><rect x="1198.9651575666473" y="230.57341769358231" fill="#000" width="79.29592895507812" height="20" opacity="1"></rect></mask><g transform="translate(1198.9651575666473 230.57341769358231) rotate(0 39.72201745212078 9.811136034130982)"><text x="39.64796447753906" y="14.016" font-family="Virgil, Segoe UI Emoji" font-size="16px" fill="#e03131" text-anchor="middle" style="white-space: pre;" direction="ltr" dominant-baseline="alphabetic">shift/pack</text></g><g mask="url(#mask-t6sVbuEPEFfYYLNQvUDkf)" stroke-linecap="round"><g transform="translate(1412.2383872480352 119.39798393445227) rotate(0 22.205564980500377 32.672996673104535)"><path d="M1.1 -0.19 C4.26 4.93, 12.25 19.4, 19.31 30.44 C26.37 41.49, 39.46 60.3, 43.44 66.09 M0.22 -1.34 C3.74 4.01, 14.07 21.07, 21.67 31.98 C29.28 42.9, 42.3 58.43, 45.83 64.13" stroke="#e03131" stroke-width="1" fill="none"></path></g><g transform="translate(1412.2383872480352 119.39798393445227) rotate(0 22.205564980500377 32.672996673104535)"><path d="M28.2 52.16 C33.68 54.84, 39.83 58.29, 45.83 64.13 M28.2 52.16 C34.94 57, 40.1 61.52, 45.83 64.13" stroke="#e03131" stroke-width="1" fill="none"></path></g><g transform="translate(1412.2383872480352 119.39798393445227) rotate(0 22.205564980500377 32.672996673104535)"><path d="M40.02 43.63 C41.57 49.23, 43.83 55.5, 45.83 64.13 M40.02 43.63 C42.4 51.54, 43.28 59.14, 45.83 64.13" stroke="#e03131" stroke-width="1" fill="none"></path></g></g><mask id="mask-t6sVbuEPEFfYYLNQvUDkf"><rect x="0" y="0" fill="#fff" width="1556.649517209036" height="284.74397728066134"></rect><rect x="1415.2118417329618" y="139.82991478066128" fill="#000" width="34.01597595214844" height="20" opacity="1"></rect></mask><g transform="translate(1415.2118417329618 139.82991478066128) rotate(0 20.04989929469023 11.941351900649977)"><text x="17.00798797607422" y="14.016" font-family="Virgil, Segoe UI Emoji" font-size="16px" fill="#e03131" text-anchor="middle" style="white-space: pre;" direction="ltr" dominant-baseline="alphabetic">send</text></g></svg>