<?xml version="1.0" ?><svg height="240px" version="1.1" viewBox="0 0 240 240" width="240px" xmlns="http://www.w3.org/2000/svg" xmlns:xlink="http://www.w3.org/1999/xlink"><title/><desc/><g fill="none" fill-rule="evenodd" id="calendar" stroke="none" stroke-width="1"><g id="bounding-box"><polygon id="shape" points="0 0 240 0 240 240 0 240"/></g><rect fill="#E8F7FF" height="40" id="Rectangle" width="160" x="40" y="50"/><rect height="150" id="Rectangle" rx="15" stroke="#46AAF7" stroke-width="10" width="170" x="35" y="45"/><line id="Line-2" stroke="#46AAF7" stroke-linecap="square" stroke-width="10" x1="44" x2="203" y1="85" y2="85"/><rect height="20" id="Rectangle" rx="0.5" stroke="#46AAF7" stroke-width="10" width="1" x="75" y="35"/><rect height="20" id="Rectangle-Copy" rx="0.5" stroke="#46AAF7" stroke-width="10" width="1" x="165" y="35"/><rect height="20" id="Rectangle" rx="8" stroke="#46AAF7" stroke-width="10" width="20" x="65" y="110"/><rect height="20" id="Rectangle-Copy-4" rx="8" stroke="#46AAF7" stroke-width="10" width="20" x="65" y="150"/><rect height="20" id="Rectangle-Copy-2" rx="8" stroke="#46AAF7" stroke-width="10" width="20" x="110" y="110"/><rect height="20" id="Rectangle-Copy-5" rx="8" stroke="#46AAF7" stroke-width="10" width="20" x="110" y="150"/><rect height="20" id="Rectangle-Copy-3" rx="8" stroke="#46AAF7" stroke-width="10" width="20" x="155" y="110"/><rect height="20" id="Rectangle-Copy-6" rx="8" stroke="#46AAF7" stroke-width="10" width="20" x="155" y="150"/></g></svg>