<?xml version="1.0" ?><svg data-name="Layer 5" id="Layer_5" viewBox="0 0 32 32" xmlns="http://www.w3.org/2000/svg"><defs><style>.cls-1{fill:#ffbbbc;}.cls-2{fill:#f41870;}.cls-3{fill:#ffd58a;}.cls-4{fill:#fee9be;}.cls-5{fill:#361041;}</style></defs><polygon class="cls-1" points="11.22 26.94 6.46 25.57 4.08 23.59 3.84 21.57 5.64 20.25 7.76 20.95 8.73 21.77 9.68 19.39 11.6 18.38 13.35 19.07 14.23 21.26 13.75 23.59 12.73 25.41 11.22 26.94"/><polygon class="cls-2" points="6.93 7.18 13.35 15.79 18.72 22.47 25.75 18.49 24.3 15.7 15.42 2.45 10.33 3.48 7.13 6.36 6.93 7.18"/><polygon class="cls-3" points="11.01 3.46 8.48 4.96 7.13 7.03 8.95 6.7 11.52 5.77 13.64 4.62 14.96 3.12 15.28 2.45 13.13 2.45 11.01 3.46"/><polygon class="cls-3" points="19.39 22.47 19.83 22.3 21.36 21.18 23.51 20.01 24.84 19.34 25.75 19.02 24.57 17.85 23.93 17.58 23.39 17.73 23.11 18.27 23.01 19.47 22.33 19.07 21.78 18.86 21.24 19.14 20.96 19.62 21.04 20.82 20.21 20.37 19.39 20.23 18.99 20.37 18.86 21.26 19.39 22.47"/><polygon class="cls-4" points="26.06 19.07 28.39 25.55 26.06 27.25 22.07 24.91 19.15 22.64 21.45 21.12 23.63 19.94 24.56 19.47 25.65 19.07 26.06 19.07"/><path class="cls-5" d="M9.09,6.09a7.3,7.3,0,0,0,2.17-.89,8,8,0,0,0,2.13-1.1c.27-.21.59-.56.12-.75-.25-.11-.55.1-.78.17a11.55,11.55,0,0,0-2.39,1,4.25,4.25,0,0,0-1.25.93C9,5.56,8.63,6.12,9.09,6.09Z"/><path class="cls-5" d="M2.42,31c.05.2,2.45-.61,2.81-.74a28.51,28.51,0,0,0,4.51-1.94c.49-.29,1-.84,1.57-.78a18.56,18.56,0,0,1,2.47.69,47.58,47.58,0,0,0,10,1.19A19.13,19.13,0,0,0,26,29.35c.15,0,1.73,0,1.46-.33s-1.88-.09-2.19-.1c-.82,0-1.63-.12-2.44-.19a45.62,45.62,0,0,1-5.47-.66c-1.81-.38-3.56-.87-5.32-1.39,2-1.75,3.51-5.12,1.8-7.54s-5.1-.67-5.37,2A3.41,3.41,0,0,0,5,19.9a2.51,2.51,0,0,0-1.67,3.26c.36,1.22,1.64,2,2.7,2.49a32.81,32.81,0,0,0,4.31,1.61,15.47,15.47,0,0,1-4.27,2.21C5.67,29.63,2.34,30.67,2.42,31Zm6.27-5.36c-1.51-.54-5-1.63-4.34-3.87a1.79,1.79,0,0,1,2.41-.95A7.83,7.83,0,0,1,9,22.55a7.56,7.56,0,0,1,.92-2.64c.84-1.24,2.52-1.51,3.37-.13s.34,3.23-.38,4.6c-.27.53-.89,1.77-1.5,2S9.32,25.87,8.69,25.64Z"/><path class="cls-5" d="M28.55,24.45c-.38-1.45-.95-2.85-1.39-4.28-1.05-3.33-3.24-5.9-5-8.84S18.3,5.54,16.37,2.66c-.34-.5-.44-1-1.05-1.12a5.93,5.93,0,0,0-1.92.17A10.15,10.15,0,0,0,9.11,3.62,8.42,8.42,0,0,0,6.56,6.25C6,7.38,7.73,9.18,8.37,10c-.18-.21.4.52.48.62l.05.07c.46.59.92,1.18,1.37,1.81.81,1.15,1.59,2.2,2.46,3.32,1.7,2.21,3.17,4.75,5.14,6.73a31.75,31.75,0,0,0,7.47,5.07,14.68,14.68,0,0,0,3.74,1.59c.73.16.79-.11.65-.78C29.26,27.14,28.91,25.78,28.55,24.45ZM19.8,10.21C21.43,12.84,23.39,15.29,25,18l-.2-.18c-.85-.65-1.94-.32-1.86.9-1.46-2.18-3.07-4-4.56-6.12-1.72-2.47-3.37-5-5-7.53A6,6,0,0,0,15.24,3C16.67,5.42,18.29,7.78,19.8,10.21ZM25.36,19c-.61.26-1.22.53-1.82.82-.42-.77-.56-2.07.46-2.07a1.09,1.09,0,0,1,.54.29l0,0A2.6,2.6,0,0,1,25.36,19Zm-4.52,1.61C20.19,19.82,19.6,19,19,18.2c-1-1.43-2.23-2.75-3.34-4.13-.94-1.17-1.78-2.52-2.7-3.69S11,7.82,10.2,6.48a23.56,23.56,0,0,0,2.3-1,3.24,3.24,0,0,1,.56-.28c.1,0,.31.48.37.57.24.35.47.7.69,1.06,1,1.53,1.9,3.1,2.94,4.6s2,2.8,3,4.12a30.72,30.72,0,0,1,2.76,3.73C21.6,18.22,20.49,19.1,20.84,20.59Zm.34-1.2s0,0,0,0c.56-.74,1.48.12,1.91.64a16.21,16.21,0,0,0-1.8.95l-.08-.16C21.1,20.5,20.91,19.66,21.18,19.39ZM7.93,6.19l0,0A10.45,10.45,0,0,1,11,4a10.61,10.61,0,0,1,3.83-1.24h.07a4.52,4.52,0,0,1-1.72,1.9,27.59,27.59,0,0,1-2.55,1.23,10.8,10.8,0,0,1-2.15.69c-.28,0-.55.1-.82.16A2.25,2.25,0,0,1,7.93,6.19ZM14.27,16c-2.08-2.73-4.19-5.43-6.17-8.24-.15-.21-.32-.42-.49-.63C8,7,8.33,7,8.69,6.93s1-.4,1.2-.33.68,1,.8,1.17c.35.51.69,1,1.05,1.53C13,11,14.18,12.73,15.53,14.47c.27.34.94,1.09,1.23,1.52.56.73,1.28,1.54,1.73,2.21l0,0c.37.47,1,1.25,1.23,1.61l.3.4c-1-.58-1.58.39-1.27,1.32A60.55,60.55,0,0,1,14.27,16Zm5.17,6.1a1.32,1.32,0,0,1-.41-.79.85.85,0,0,1,.13-.82c.3-.31,1.13.21,1.36.44l0,0,.33.29c-.27.18-.54.36-.8.56S19.75,22.26,19.44,22.08Zm7,4.34c-.42.33-.36.36-.76.27a5.64,5.64,0,0,1-1.27-.78c-.28-.17-.55-.36-.82-.54a31.09,31.09,0,0,1-3.76-2.8,19.74,19.74,0,0,1,3.71-2.39,5.89,5.89,0,0,1,1.81-.86c.31,0,.17-.13.36.18a2,2,0,0,1,.16.4l.26.63a40,40,0,0,1,1.71,4.74C27.38,25.66,26.92,26.05,26.44,26.42Z"/></svg>