<?xml version="1.0" ?><svg viewBox="0 0 64 64" xmlns="http://www.w3.org/2000/svg"><defs><style>.cls-1{fill:#f57c00;}.cls-2{fill:#999;}.cls-3{fill:#666;}</style></defs><title/><g data-name="outline color" id="outline_color"><path class="cls-1" d="M44,60H35a5,5,0,0,1,0-10h6a1,1,0,0,1,0,2H35a3,3,0,0,0,0,6h9a3,3,0,0,0,3-3,3.14,3.14,0,0,0-.09-.75,1,1,0,1,1,1.93-.5A4.82,4.82,0,0,1,49,55,5,5,0,0,1,44,60Z"/><path class="cls-1" d="M55,60H49a1,1,0,0,1,0-2h6a3,3,0,0,0,0-6H46a3,3,0,0,0-3,3,3.14,3.14,0,0,0,.09.75,1,1,0,1,1-1.93.5A4.82,4.82,0,0,1,41,55a5,5,0,0,1,5-5h9a5,5,0,0,1,0,10Z"/><path class="cls-1" d="M27.19,54.25a1,1,0,0,1-.85-.47A15.81,15.81,0,0,1,23,44a2.3,2.3,0,0,1,0-.37A15.87,15.87,0,0,1,38.72,28a2.86,2.86,0,0,1,.65,0A15.87,15.87,0,0,1,55,43.72,1.87,1.87,0,0,1,55,44a16.08,16.08,0,0,1-.32,3.2,1,1,0,1,1-2-.4A13.57,13.57,0,0,0,53,44v-.15A14,14,0,0,0,39.24,30h-.39A14,14,0,0,0,25,43.76c0,.14,0,.19,0,.24a13.77,13.77,0,0,0,3,8.62,1,1,0,0,1-.79,1.63Z"/><path class="cls-1" d="M32.19,48.52a1,1,0,0,1-1-1A33.83,33.83,0,0,1,31,44a30.43,30.43,0,0,1,.68-6.56c1.22-5.57,3.89-9.19,7-9.43a3.41,3.41,0,0,1,.71,0c3.06.23,5.73,3.85,7,9.43A30.27,30.27,0,0,1,47,44c0,1,0,2.07-.14,3.1a1,1,0,1,1-2-.18C45,46,45,45,45,44a27.57,27.57,0,0,0-.64-6.12c-1-4.55-3.07-7.71-5.18-7.87h-.33c-2.14.17-4.22,3.33-5.21,7.87A27.72,27.72,0,0,0,33,44a33,33,0,0,0,.18,3.4.41.41,0,0,1,0,.11A1,1,0,0,1,32.19,48.52Z"/><path class="cls-1" d="M29.35,50.35a.92.92,0,0,1-.36-.07c-3.81-1.48-6-3.77-6-6.28a2.3,2.3,0,0,1,0-.37c.23-3.06,3.85-5.73,9.43-7a31.93,31.93,0,0,1,13.11,0c5.57,1.22,9.19,3.89,9.43,7,0,.1,0,.21,0,.34a5.16,5.16,0,0,1-1.74,3.71,1,1,0,0,1-1.4-1.42A3.27,3.27,0,0,0,53,44v-.15c-.17-2.14-3.33-4.22-7.87-5.21A27.72,27.72,0,0,0,39,38a27.57,27.57,0,0,0-6.12.64c-4.55,1-7.71,3.07-7.87,5.18A1.28,1.28,0,0,0,25,44c0,1.62,1.76,3.27,4.71,4.42a1,1,0,0,1-.36,1.93Z"/><path class="cls-2" d="M21.79,55.1a5.07,5.07,0,0,1-4.59-3L4.56,23.83a5,5,0,0,1,2.52-6.6l20.17-9A1,1,0,0,1,28.07,10l-20.17,9a3,3,0,0,0-1.52,4L19,51.32A3,3,0,0,0,22.56,53a1,1,0,1,1,.52,1.92A4.73,4.73,0,0,1,21.79,55.1Z"/><path class="cls-3" d="M16.74,22.68a1,1,0,0,1-.92-.6,1,1,0,0,1,.51-1.32l8.21-3.67a1,1,0,1,1,.82,1.83l-8.22,3.67A1,1,0,0,1,16.74,22.68Z"/><path class="cls-3" d="M16.44,29.38A1,1,0,0,1,16,27.47l6.78-3a1,1,0,0,1,.82,1.82l-6.78,3A1,1,0,0,1,16.44,29.38Z"/><path class="cls-3" d="M18.89,34.85a1,1,0,0,1-.41-1.91l2.29-1a1,1,0,0,1,.82,1.82l-2.29,1A1,1,0,0,1,18.89,34.85Z"/><path class="cls-2" d="M20.25,42a1,1,0,0,1-.86-.48,5,5,0,0,1-.55-3.91L27,7.67a5,5,0,0,1,6.14-3.51L56.31,10.5a4.9,4.9,0,0,1,3,2.33,5,5,0,0,1,.49,3.8L55.31,33.09a1,1,0,0,1-1.93-.52L57.9,16.11a3,3,0,0,0-.29-2.28,2.94,2.94,0,0,0-1.82-1.4L32.65,6.08A3,3,0,0,0,29,8.2L20.77,38.09a3,3,0,0,0,.34,2.35,1,1,0,0,1-.34,1.38A1.07,1.07,0,0,1,20.25,42Z"/><path class="cls-3" d="M47.46,17.36a1.24,1.24,0,0,1-.27,0L38.51,15a1,1,0,0,1-.7-1.23A1,1,0,0,1,39,13l8.68,2.38a1,1,0,0,1-.26,2Z"/><path class="cls-3" d="M48.77,23.94a1.24,1.24,0,0,1-.27,0L34,20A1,1,0,1,1,34.56,18L49,22a1,1,0,0,1-.26,2Z"/><path class="cls-3" d="M35.06,26.41a1.09,1.09,0,0,1-.26,0l-2.35-.65A1,1,0,0,1,33,23.81l2.35.64a1,1,0,0,1,.7,1.22A1,1,0,0,1,35.06,26.41Z"/></g></svg>