<?xml version="1.0" ?><svg data-name="Layer 1" id="Layer_1" viewBox="0 0 64 64" xmlns="http://www.w3.org/2000/svg"><defs><style>.cls-1{fill:#4fbe9f;}.cls-2{fill:#09816c;}</style></defs><title/><path class="cls-1" d="M55.24,16.68a19.54,19.54,0,0,1-3.31,1.12,10.33,10.33,0,0,0,2.72-4.34.54.54,0,0,0-.79-.63,19,19,0,0,1-5.06,2.09,1.12,1.12,0,0,1-.32,0,1.33,1.33,0,0,1-.88-.34A10.34,10.34,0,0,0,40.75,12a11.22,11.22,0,0,0-3.22.48,10,10,0,0,0-6.9,7.61,13.07,13.07,0,0,0-.19,1.36,1.45,1.45,0,0,0,1,1.51,37.23,37.23,0,0,0,4.51.93,37,37,0,0,1-5.92.07l-.62-.07h0a27.1,27.1,0,0,1-18-9.87.55.55,0,0,0-.9,0A10.37,10.37,0,0,0,12.2,26.68a9.7,9.7,0,0,1-2.38-.92.52.52,0,0,0-.78.47,10.37,10.37,0,0,0,6,9.55h-.22a9.43,9.43,0,0,1-1.75-.17.54.54,0,0,0-.61.7,10.37,10.37,0,0,0,8,7,24.89,24.89,0,0,0,9-.23s-3.84,3-10.31,1.85a3.23,3.23,0,0,0-1.79.24A19.18,19.18,0,0,1,10,46.61H8.8a.78.78,0,0,0-.77.6.81.81,0,0,0,.39.91A28.45,28.45,0,0,0,22.69,52a28.91,28.91,0,0,0,12.2-2.58,27.09,27.09,0,0,0,8.92-6.69,29.32,29.32,0,0,0,5.46-9.15,28.82,28.82,0,0,0,1.86-10v-.16A1.76,1.76,0,0,1,51.79,22a20.2,20.2,0,0,0,4.12-4.53A.54.54,0,0,0,55.24,16.68Z"/><path class="cls-2" d="M29.42,43.08s-3.84,3-10.31,1.85a3.23,3.23,0,0,0-1.79.24A19.18,19.18,0,0,1,10,46.61H8.8a.78.78,0,0,0-.77.6.81.81,0,0,0,.39.91A28.45,28.45,0,0,0,22.69,52a28.91,28.91,0,0,0,12.2-2.58,27.09,27.09,0,0,0,8.92-6.69C38.5,48.5,29.42,43.08,29.42,43.08Z"/></svg>