<?xml version="1.0" ?><!DOCTYPE svg  PUBLIC '-//W3C//DTD SVG 1.1//EN'  'http://www.w3.org/Graphics/SVG/1.1/DTD/svg11.dtd'><svg height="100%" style="fill-rule:evenodd;clip-rule:evenodd;stroke-linejoin:round;stroke-miterlimit:2;" version="1.1" viewBox="0 0 64 64" width="100%" xml:space="preserve" xmlns="http://www.w3.org/2000/svg" xmlns:serif="http://www.serif.com/" xmlns:xlink="http://www.w3.org/1999/xlink"><g transform="matrix(1,0,0,1,-720,0)"><g id="wechat-apps-platform" transform="matrix(1,0,0,1,720,7.10543e-15)"><rect height="64" style="fill:none;" width="64" x="0" y="0"/><g transform="matrix(1,0,0,1,-720,5.27273)"><path d="M731.491,35.526C726.9,32.227 724,27.388 724,22C724,12.066 733.858,4 746,4C758.142,4 768,12.066 768,22C768,31.934 758.142,40 746,40C741.957,40 738.167,39.106 734.909,37.545L730,40L731.491,35.526Z" style="fill:rgb(149,214,164);"/></g><g transform="matrix(1,0,0,1,-720,-7.10543e-15)"><path d="M741.889,44.958C741.311,43.389 741,41.724 741,40C741,30.517 750.41,22.818 762,22.818C763.9,22.818 765.741,23.025 767.492,23.413C767.825,24.655 768,25.947 768,27.273C768,37.207 758.142,45.273 746,45.273C744.595,45.273 743.221,45.165 741.889,44.958Z" style="fill:rgb(120,194,164);"/></g><g transform="matrix(1,0,0,1,-720,5.27273)"><path d="M730.901,35.714C726.348,32.324 723.5,27.43 723.5,22C723.5,11.82 733.557,3.5 746,3.5C758.443,3.5 768.5,11.82 768.5,22C768.5,32.18 758.443,40.5 746,40.5C741.969,40.5 738.186,39.627 734.915,38.101L730.224,40.447C730.043,40.538 729.825,40.51 729.672,40.378C729.52,40.245 729.462,40.034 729.526,39.842L730.901,35.714ZM730.856,39.013L734.686,37.098C734.824,37.029 734.986,37.028 735.125,37.094C738.319,38.624 742.036,39.5 746,39.5C757.842,39.5 767.5,31.689 767.5,22C767.5,12.311 757.842,4.5 746,4.5C734.158,4.5 724.5,12.311 724.5,22C724.5,27.23 727.327,31.918 731.783,35.12C731.961,35.248 732.035,35.477 731.966,35.685L730.856,39.013Z"/></g><g transform="matrix(1,0,0,1,-720,5.27273)"><circle cx="739" cy="15" r="3" style="fill:rgb(249,246,249);"/></g><g transform="matrix(1,0,0,1,-720,5.27273)"><path d="M739,11.5C737.068,11.5 735.5,13.068 735.5,15C735.5,16.932 737.068,18.5 739,18.5C740.932,18.5 742.5,16.932 742.5,15C742.5,13.068 740.932,11.5 739,11.5ZM739,12.5C740.38,12.5 741.5,13.62 741.5,15C741.5,16.38 740.38,17.5 739,17.5C737.62,17.5 736.5,16.38 736.5,15C736.5,13.62 737.62,12.5 739,12.5Z"/></g><g transform="matrix(1,0,0,1,-706,5.27273)"><circle cx="739" cy="15" r="3" style="fill:rgb(249,246,249);"/></g><g transform="matrix(1,0,0,1,-706,5.27273)"><path d="M739,11.5C737.068,11.5 735.5,13.068 735.5,15C735.5,16.932 737.068,18.5 739,18.5C740.932,18.5 742.5,16.932 742.5,15C742.5,13.068 740.932,11.5 739,11.5ZM739,12.5C740.38,12.5 741.5,13.62 741.5,15C741.5,16.38 740.38,17.5 739,17.5C737.62,17.5 736.5,16.38 736.5,15C736.5,13.62 737.62,12.5 739,12.5Z"/></g><g transform="matrix(-0.818182,0,0,0.818182,652.364,22)"><path d="M731.491,35.526C726.9,32.227 724,27.388 724,22C724,12.066 733.858,4 746,4C758.142,4 768,12.066 768,22C768,31.934 758.142,40 746,40C741.957,40 738.167,39.106 734.909,37.545L730,40L731.491,35.526Z" style="fill:rgb(204,244,159);"/></g><g transform="matrix(1,0,0,1,-720,-7.10543e-15)"><path d="M751.99,27.762C748.314,30.459 746,34.374 746,38.727C746,46.855 754.066,53.455 764,53.455C767.308,53.455 770.409,52.723 773.074,51.446L774.182,52L775.091,54.727L771.074,52.719C768.409,53.996 765.308,54.727 762,54.727C752.066,54.727 744,48.128 744,40C744,34.902 747.173,30.406 751.99,27.762Z" style="fill:rgb(149,214,164);"/></g><g transform="matrix(-0.818182,0,0,0.818182,652.364,22)"><path d="M734.917,38.225C738.191,39.743 741.973,40.611 746,40.611C758.51,40.611 768.611,32.235 768.611,22C768.611,11.765 758.51,3.389 746,3.389C733.49,3.389 723.389,11.765 723.389,22C723.389,27.439 726.226,32.345 730.771,35.755L729.42,39.807C729.342,40.041 729.413,40.3 729.6,40.462C729.786,40.624 730.052,40.657 730.273,40.547L734.917,38.225ZM731.046,38.794L732.071,35.72C732.156,35.466 732.065,35.186 731.848,35.03C727.422,31.85 724.611,27.194 724.611,22C724.611,12.366 734.225,4.611 746,4.611C757.775,4.611 767.389,12.366 767.389,22C767.389,31.634 757.775,39.389 746,39.389C742.053,39.389 738.353,38.517 735.173,36.994C735.003,36.913 734.805,36.914 734.636,36.999L731.046,38.794Z"/></g><g transform="matrix(1,0,0,1,-720,5.27273)"><circle cx="757" cy="28" r="2" style="fill:rgb(249,246,249);"/></g><g transform="matrix(1,0,0,1,-720,5.27273)"><path d="M757,25.5C755.62,25.5 754.5,26.62 754.5,28C754.5,29.38 755.62,30.5 757,30.5C758.38,30.5 759.5,29.38 759.5,28C759.5,26.62 758.38,25.5 757,25.5ZM757,26.5C757.828,26.5 758.5,27.172 758.5,28C758.5,28.828 757.828,29.5 757,29.5C756.172,29.5 755.5,28.828 755.5,28C755.5,27.172 756.172,26.5 757,26.5Z"/></g><g transform="matrix(1,0,0,1,-710,5.27273)"><circle cx="757" cy="28" r="2" style="fill:rgb(249,246,249);"/></g><g transform="matrix(1,0,0,1,-710,5.27273)"><path d="M757,25.5C755.62,25.5 754.5,26.62 754.5,28C754.5,29.38 755.62,30.5 757,30.5C758.38,30.5 759.5,29.38 759.5,28C759.5,26.62 758.38,25.5 757,25.5ZM757,26.5C757.828,26.5 758.5,27.172 758.5,28C758.5,28.828 757.828,29.5 757,29.5C756.172,29.5 755.5,28.828 755.5,28C755.5,27.172 756.172,26.5 757,26.5Z"/></g></g></g></svg>